<svg width="24" height="24" viewBox="0 0 24 24" fill="none" xmlns="http://www.w3.org/2000/svg">
<path d="M16.0195 8.79883L12.9434 11.875L16.0195 14.9805C16.4004 15.332 16.4004 15.9473 16.0195 16.2988C15.668 16.6797 15.0527 16.6797 14.7012 16.2988L11.625 13.2227L8.51953 16.2988C8.16797 16.6797 7.55273 16.6797 7.20117 16.2988C6.82031 15.9473 6.82031 15.332 7.20117 14.9805L10.2773 11.875L7.20117 8.79883C6.82031 8.44727 6.82031 7.83203 7.20117 7.48047C7.55273 7.09961 8.16797 7.09961 8.51953 7.48047L11.625 10.5566L14.7012 7.48047C15.0527 7.09961 15.668 7.09961 16.0195 7.48047C16.4004 7.83203 16.4004 8.44727 16.0195 8.79883Z" fill="#5F249F"/>
</svg>
