<svg width="24" height="22" viewBox="0 0 24 22" fill="none" xmlns="http://www.w3.org/2000/svg">
<circle cx="11" cy="11" r="9" fill="#5F249F"/>
<path d="M18.7036 15.2933L23.2912 19.2196H14.116L18.7036 15.2933Z" fill="#5F249F"/>
<path d="M12.8691 12.1351L14.5508 12.6683C14.293 13.6058 13.8633 14.3031 13.2617 14.7601C12.6641 15.2133 11.9043 15.4398 10.9824 15.4398C9.8418 15.4398 8.9043 15.0511 8.16992 14.2738C7.43555 13.4926 7.06836 12.4261 7.06836 11.0746C7.06836 9.6449 7.4375 8.53552 8.17578 7.74646C8.91406 6.95349 9.88477 6.55701 11.0879 6.55701C12.1387 6.55701 12.9922 6.86755 13.6484 7.48865C14.0391 7.85583 14.332 8.38318 14.5273 9.07068L12.8105 9.48083C12.709 9.03552 12.4961 8.68396 12.1719 8.42615C11.8516 8.16833 11.4609 8.03943 11 8.03943C10.3633 8.03943 9.8457 8.26794 9.44727 8.72498C9.05273 9.18201 8.85547 9.92224 8.85547 10.9457C8.85547 12.0316 9.05078 12.8051 9.44141 13.266C9.83203 13.7269 10.3398 13.9574 10.9648 13.9574C11.4258 13.9574 11.8223 13.8109 12.1543 13.5179C12.4863 13.225 12.7246 12.764 12.8691 12.1351Z" fill="white"/>
</svg>
