<svg width="24" height="24" viewBox="0 0 24 24" fill="none" xmlns="http://www.w3.org/2000/svg">
<path d="M7.92383 18.1445C7.74805 18.3496 7.51367 18.4375 7.25 18.4375C6.98633 18.4375 6.72266 18.3496 6.54688 18.1445L3.96875 15.332C3.61719 14.9512 3.64648 14.3652 4.02734 14.0137C4.4082 13.6621 4.99414 13.6914 5.3457 14.0723L6.3125 15.0977V6.25C6.3125 5.75195 6.72266 5.3125 7.25 5.3125C7.74805 5.3125 8.1875 5.75195 8.1875 6.25V15.0977L9.125 14.0723C9.47656 13.6914 10.0625 13.6621 10.4434 14.0137C10.8242 14.3652 10.8535 14.9512 10.502 15.332L7.92383 18.1445ZM12.875 18.4375C12.3477 18.4375 11.9375 18.0273 11.9375 17.5C11.9375 17.002 12.3477 16.5625 12.875 16.5625H13.8125C14.3105 16.5625 14.75 17.002 14.75 17.5C14.75 18.0273 14.3105 18.4375 13.8125 18.4375H12.875ZM12.875 14.6875C12.3477 14.6875 11.9375 14.2773 11.9375 13.75C11.9375 13.252 12.3477 12.8125 12.875 12.8125H15.6875C16.1855 12.8125 16.625 13.252 16.625 13.75C16.625 14.2773 16.1855 14.6875 15.6875 14.6875H12.875ZM12.875 10.9375C12.3477 10.9375 11.9375 10.5273 11.9375 10C11.9375 9.50195 12.3477 9.0625 12.875 9.0625H17.5625C18.0605 9.0625 18.5 9.50195 18.5 10C18.5 10.5273 18.0605 10.9375 17.5625 10.9375H12.875ZM12.875 7.1875C12.3477 7.1875 11.9375 6.77734 11.9375 6.25C11.9375 5.75195 12.3477 5.3125 12.875 5.3125H19.4375C19.9355 5.3125 20.375 5.75195 20.375 6.25C20.375 6.77734 19.9355 7.1875 19.4375 7.1875H12.875Z" fill="black"/>
</svg>
