<svg width="24" height="24" viewBox="0 0 24 24" fill="none" xmlns="http://www.w3.org/2000/svg">
<path d="M6.80859 4.76172L9.90234 8.13672C10.3242 8.59375 10.2891 9.29688 9.83203 9.71875C9.375 10.1406 8.67188 10.1055 8.25 9.64844L7.125 8.41797V19C7.125 19.6328 6.59766 20.125 6 20.125C5.36719 20.125 4.875 19.6328 4.875 19V8.41797L3.71484 9.64844C3.29297 10.1055 2.58984 10.1406 2.13281 9.71875C1.67578 9.29688 1.64062 8.59375 2.0625 8.13672L5.15625 4.76172C5.36719 4.51562 5.68359 4.375 6 4.375C6.31641 4.375 6.59766 4.51562 6.80859 4.76172ZM12.75 20.125C12.1172 20.125 11.625 19.6328 11.625 19C11.625 18.4023 12.1172 17.875 12.75 17.875H13.875C14.4727 17.875 15 18.4023 15 19C15 19.6328 14.4727 20.125 13.875 20.125H12.75ZM12.75 15.625C12.1172 15.625 11.625 15.1328 11.625 14.5C11.625 13.9023 12.1172 13.375 12.75 13.375H16.125C16.7227 13.375 17.25 13.9023 17.25 14.5C17.25 15.1328 16.7227 15.625 16.125 15.625H12.75ZM12.75 11.125C12.1172 11.125 11.625 10.6328 11.625 10C11.625 9.40234 12.1172 8.875 12.75 8.875H18.375C18.9727 8.875 19.5 9.40234 19.5 10C19.5 10.6328 18.9727 11.125 18.375 11.125H12.75ZM12.75 6.625C12.1172 6.625 11.625 6.13281 11.625 5.5C11.625 4.90234 12.1172 4.375 12.75 4.375H20.625C21.2227 4.375 21.75 4.90234 21.75 5.5C21.75 6.13281 21.2227 6.625 20.625 6.625H12.75Z" fill="#5F249F"/>
</svg>
