<svg width="16" height="17" viewBox="0 0 16 17" fill="none" xmlns="http://www.w3.org/2000/svg">
<path d="M14.4766 9C14.4766 9.42188 14.125 9.75 13.7266 9.75H12.9766L13 13.5C13 13.5703 13 13.6406 13 13.6875V14.0625C13 14.6016 12.5781 15 12.0625 15H11.6875C11.6406 15 11.6172 15 11.5938 15C11.5703 15 11.5234 15 11.5 15H10.75H10.1875C9.64844 15 9.25 14.6016 9.25 14.0625V13.5V12C9.25 11.6016 8.89844 11.25 8.5 11.25H7C6.57812 11.25 6.25 11.6016 6.25 12V13.5V14.0625C6.25 14.6016 5.82812 15 5.3125 15H4.75H4C3.95312 15 3.92969 15 3.88281 15C3.85938 15 3.83594 15 3.8125 15H3.4375C2.89844 15 2.5 14.6016 2.5 14.0625V11.4375C2.5 11.4375 2.5 11.4141 2.5 11.3906V9.75H1.75C1.32812 9.75 1 9.42188 1 9C1 8.78906 1.07031 8.60156 1.23438 8.4375L7.23438 3.1875C7.39844 3.02344 7.58594 3 7.75 3C7.91406 3 8.10156 3.04688 8.24219 3.16406L14.2188 8.4375C14.4062 8.60156 14.5 8.78906 14.4766 9Z" fill="#0095FF"/>
</svg>
