<svg width="312" height="48" viewBox="0 0 312 48" fill="none" xmlns="http://www.w3.org/2000/svg">
<g clip-path="url(#clip0_1_4425)">
<g clip-path="url(#clip1_1_4425)">
<path d="M12.2767 3.66675C10.5737 3.66691 8.90893 4.17207 7.493 5.11834C6.07706 6.06461 4.97352 7.4095 4.32191 8.98294C3.67031 10.5564 3.4999 12.2877 3.83225 13.958C4.16459 15.6283 4.98476 17.1625 6.18904 18.3667C7.39332 19.5708 8.92762 20.3908 10.5979 20.723C12.2683 21.0552 13.9996 20.8846 15.5729 20.2329C17.1463 19.5811 18.4911 18.4774 19.4372 17.0614C20.3834 15.6454 20.8884 13.9806 20.8884 12.2776C20.8875 9.99397 19.9799 7.80416 18.365 6.18948C16.7502 4.57481 14.5603 3.66741 12.2767 3.66675V3.66675ZM12.2767 6.25008C12.7876 6.25008 13.2871 6.40159 13.7119 6.68545C14.1367 6.96931 14.4679 7.37277 14.6634 7.84482C14.8589 8.31686 14.9101 8.83628 14.8104 9.3374C14.7107 9.83852 14.4647 10.2988 14.1034 10.6601C13.7421 11.0214 13.2818 11.2674 12.7807 11.3671C12.2796 11.4668 11.7601 11.4156 11.2881 11.2201C10.816 11.0246 10.4126 10.6935 10.1287 10.2686C9.84487 9.84381 9.69336 9.34435 9.69336 8.83341C9.69336 8.14827 9.96553 7.49119 10.45 7.00672C10.9345 6.52225 11.5915 6.25008 12.2767 6.25008V6.25008ZM12.2767 18.4776C11.2536 18.4775 10.2464 18.2244 9.34494 17.7406C8.44346 17.2569 7.67567 16.5576 7.11002 15.7051C7.13586 13.9917 10.5542 13.0526 12.2767 13.0526C13.9992 13.0526 17.4175 13.9909 17.4434 15.7051C16.8777 16.5576 16.1099 17.2569 15.2084 17.7406C14.3069 18.2244 13.2998 18.4775 12.2767 18.4776V18.4776Z" fill="black"/>
</g>
<path d="M26 21.5V6.5H32V2.5H40V6.5H46V21.5H26ZM34 6.5H38V4.5H34V6.5ZM44 15.5H39V17.5H33V15.5H28V19.5H44V15.5ZM35 15.5H37V13.5H35V15.5ZM28 13.5H33V11.5H39V13.5H44V8.5H28V13.5Z" fill="black"/>
<mask id="mask0_1_4425" style="mask-type:alpha" maskUnits="userSpaceOnUse" x="48" y="0" width="24" height="24">
<rect x="48" width="24" height="24" fill="#D9D9D9"/>
</mask>
<g mask="url(#mask0_1_4425)">
<path d="M54 22C53.1667 22 52.4583 21.7083 51.875 21.125C51.2917 20.5417 51 19.8333 51 19V16H54V2L55.5 3.5L57 2L58.5 3.5L60 2L61.5 3.5L63 2L64.5 3.5L66 2L67.5 3.5L69 2V19C69 19.8333 68.7083 20.5417 68.125 21.125C67.5417 21.7083 66.8333 22 66 22H54ZM66 20C66.2833 20 66.5208 19.9042 66.7125 19.7125C66.9042 19.5208 67 19.2833 67 19V5H56V16H65V19C65 19.2833 65.0958 19.5208 65.2875 19.7125C65.4792 19.9042 65.7167 20 66 20ZM57 9V7H63V9H57ZM57 12V10H63V12H57ZM65 9C64.7167 9 64.4792 8.90417 64.2875 8.7125C64.0958 8.52083 64 8.28333 64 8C64 7.71667 64.0958 7.47917 64.2875 7.2875C64.4792 7.09583 64.7167 7 65 7C65.2833 7 65.5208 7.09583 65.7125 7.2875C65.9042 7.47917 66 7.71667 66 8C66 8.28333 65.9042 8.52083 65.7125 8.7125C65.5208 8.90417 65.2833 9 65 9ZM65 12C64.7167 12 64.4792 11.9042 64.2875 11.7125C64.0958 11.5208 64 11.2833 64 11C64 10.7167 64.0958 10.4792 64.2875 10.2875C64.4792 10.0958 64.7167 10 65 10C65.2833 10 65.5208 10.0958 65.7125 10.2875C65.9042 10.4792 66 10.7167 66 11C66 11.2833 65.9042 11.5208 65.7125 11.7125C65.5208 11.9042 65.2833 12 65 12ZM54 20H63V18H53V19C53 19.2833 53.0958 19.5208 53.2875 19.7125C53.4792 19.9042 53.7167 20 54 20Z" fill="black"/>
</g>
<path d="M72 18V16.425C72 15.7083 72.3667 15.125 73.1 14.675C73.8333 14.225 74.8 14 76 14C76.2167 14 76.425 14.0042 76.625 14.0125C76.825 14.0208 77.0167 14.0417 77.2 14.075C76.9667 14.425 76.7917 14.7917 76.675 15.175C76.5583 15.5583 76.5 15.9583 76.5 16.375V18H72ZM78 18V16.375C78 15.8417 78.1458 15.3542 78.4375 14.9125C78.7292 14.4708 79.1417 14.0833 79.675 13.75C80.2083 13.4167 80.8458 13.1667 81.5875 13C82.3292 12.8333 83.1333 12.75 84 12.75C84.8833 12.75 85.6958 12.8333 86.4375 13C87.1792 13.1667 87.8167 13.4167 88.35 13.75C88.8833 14.0833 89.2917 14.4708 89.575 14.9125C89.8583 15.3542 90 15.8417 90 16.375V18H78ZM91.5 18V16.375C91.5 15.9417 91.4458 15.5333 91.3375 15.15C91.2292 14.7667 91.0667 14.4083 90.85 14.075C91.0333 14.0417 91.2208 14.0208 91.4125 14.0125C91.6042 14.0042 91.8 14 92 14C93.2 14 94.1667 14.2208 94.9 14.6625C95.6333 15.1042 96 15.6917 96 16.425V18H91.5ZM80.125 16H87.9C87.7333 15.6667 87.2708 15.375 86.5125 15.125C85.7542 14.875 84.9167 14.75 84 14.75C83.0833 14.75 82.2458 14.875 81.4875 15.125C80.7292 15.375 80.275 15.6667 80.125 16ZM76 13C75.45 13 74.9792 12.8042 74.5875 12.4125C74.1958 12.0208 74 11.55 74 11C74 10.4333 74.1958 9.95833 74.5875 9.575C74.9792 9.19167 75.45 9 76 9C76.5667 9 77.0417 9.19167 77.425 9.575C77.8083 9.95833 78 10.4333 78 11C78 11.55 77.8083 12.0208 77.425 12.4125C77.0417 12.8042 76.5667 13 76 13ZM92 13C91.45 13 90.9792 12.8042 90.5875 12.4125C90.1958 12.0208 90 11.55 90 11C90 10.4333 90.1958 9.95833 90.5875 9.575C90.9792 9.19167 91.45 9 92 9C92.5667 9 93.0417 9.19167 93.425 9.575C93.8083 9.95833 94 10.4333 94 11C94 11.55 93.8083 12.0208 93.425 12.4125C93.0417 12.8042 92.5667 13 92 13ZM84 12C83.1667 12 82.4583 11.7083 81.875 11.125C81.2917 10.5417 81 9.83333 81 9C81 8.15 81.2917 7.4375 81.875 6.8625C82.4583 6.2875 83.1667 6 84 6C84.85 6 85.5625 6.2875 86.1375 6.8625C86.7125 7.4375 87 8.15 87 9C87 9.83333 86.7125 10.5417 86.1375 11.125C85.5625 11.7083 84.85 12 84 12ZM84 10C84.2833 10 84.5208 9.90417 84.7125 9.7125C84.9042 9.52083 85 9.28333 85 9C85 8.71667 84.9042 8.47917 84.7125 8.2875C84.5208 8.09583 84.2833 8 84 8C83.7167 8 83.4792 8.09583 83.2875 8.2875C83.0958 8.47917 83 8.71667 83 9C83 9.28333 83.0958 9.52083 83.2875 9.7125C83.4792 9.90417 83.7167 10 84 10Z" fill="black"/>
<mask id="mask1_1_4425" style="mask-type:alpha" maskUnits="userSpaceOnUse" x="96" y="0" width="24" height="24">
<rect x="96" width="24" height="24" fill="#D9D9D9"/>
</mask>
<g mask="url(#mask1_1_4425)">
<path d="M102 20C101.45 20 100.979 19.8042 100.588 19.4125C100.196 19.0208 100 18.55 100 18C100 17.45 100.196 16.9792 100.588 16.5875C100.979 16.1958 101.45 16 102 16C102.55 16 103.021 16.1958 103.413 16.5875C103.804 16.9792 104 17.45 104 18C104 18.55 103.804 19.0208 103.413 19.4125C103.021 19.8042 102.55 20 102 20ZM108 20C107.45 20 106.979 19.8042 106.588 19.4125C106.196 19.0208 106 18.55 106 18C106 17.45 106.196 16.9792 106.588 16.5875C106.979 16.1958 107.45 16 108 16C108.55 16 109.021 16.1958 109.413 16.5875C109.804 16.9792 110 17.45 110 18C110 18.55 109.804 19.0208 109.413 19.4125C109.021 19.8042 108.55 20 108 20ZM114 20C113.45 20 112.979 19.8042 112.588 19.4125C112.196 19.0208 112 18.55 112 18C112 17.45 112.196 16.9792 112.588 16.5875C112.979 16.1958 113.45 16 114 16C114.55 16 115.021 16.1958 115.413 16.5875C115.804 16.9792 116 17.45 116 18C116 18.55 115.804 19.0208 115.413 19.4125C115.021 19.8042 114.55 20 114 20ZM102 14C101.45 14 100.979 13.8042 100.588 13.4125C100.196 13.0208 100 12.55 100 12C100 11.45 100.196 10.9792 100.588 10.5875C100.979 10.1958 101.45 10 102 10C102.55 10 103.021 10.1958 103.413 10.5875C103.804 10.9792 104 11.45 104 12C104 12.55 103.804 13.0208 103.413 13.4125C103.021 13.8042 102.55 14 102 14ZM108 14C107.45 14 106.979 13.8042 106.588 13.4125C106.196 13.0208 106 12.55 106 12C106 11.45 106.196 10.9792 106.588 10.5875C106.979 10.1958 107.45 10 108 10C108.55 10 109.021 10.1958 109.413 10.5875C109.804 10.9792 110 11.45 110 12C110 12.55 109.804 13.0208 109.413 13.4125C109.021 13.8042 108.55 14 108 14ZM114 14C113.45 14 112.979 13.8042 112.588 13.4125C112.196 13.0208 112 12.55 112 12C112 11.45 112.196 10.9792 112.588 10.5875C112.979 10.1958 113.45 10 114 10C114.55 10 115.021 10.1958 115.413 10.5875C115.804 10.9792 116 11.45 116 12C116 12.55 115.804 13.0208 115.413 13.4125C115.021 13.8042 114.55 14 114 14ZM102 8C101.45 8 100.979 7.80417 100.588 7.4125C100.196 7.02083 100 6.55 100 6C100 5.45 100.196 4.97917 100.588 4.5875C100.979 4.19583 101.45 4 102 4C102.55 4 103.021 4.19583 103.413 4.5875C103.804 4.97917 104 5.45 104 6C104 6.55 103.804 7.02083 103.413 7.4125C103.021 7.80417 102.55 8 102 8ZM108 8C107.45 8 106.979 7.80417 106.588 7.4125C106.196 7.02083 106 6.55 106 6C106 5.45 106.196 4.97917 106.588 4.5875C106.979 4.19583 107.45 4 108 4C108.55 4 109.021 4.19583 109.413 4.5875C109.804 4.97917 110 5.45 110 6C110 6.55 109.804 7.02083 109.413 7.4125C109.021 7.80417 108.55 8 108 8ZM114 8C113.45 8 112.979 7.80417 112.588 7.4125C112.196 7.02083 112 6.55 112 6C112 5.45 112.196 4.97917 112.588 4.5875C112.979 4.19583 113.45 4 114 4C114.55 4 115.021 4.19583 115.413 4.5875C115.804 4.97917 116 5.45 116 6C116 6.55 115.804 7.02083 115.413 7.4125C115.021 7.80417 114.55 8 114 8Z" fill="black"/>
</g>
<path d="M122 22V2H142V18H126L122 22ZM125.15 16H140V4H124V17.125L125.15 16ZM126 14H134V12H126V14ZM126 11H138V9H126V11ZM126 8H138V6H126V8Z" fill="black"/>
<path d="M160.5 20H161.5V16H160.5V20ZM161 15C161.133 15 161.25 14.95 161.35 14.85C161.45 14.75 161.5 14.6333 161.5 14.5C161.5 14.3667 161.45 14.25 161.35 14.15C161.25 14.05 161.133 14 161 14C160.867 14 160.75 14.05 160.65 14.15C160.55 14.25 160.5 14.3667 160.5 14.5C160.5 14.6333 160.55 14.75 160.65 14.85C160.75 14.95 160.867 15 161 15ZM151 14H154.675C154.858 13.6167 155.071 13.2583 155.313 12.925C155.554 12.5917 155.825 12.2833 156.125 12H151V14ZM151 18H154.075C154.025 17.6667 154 17.3333 154 17C154 16.6667 154.025 16.3333 154.075 16H151V18ZM147 22V2H157L163 8V10.3C162.683 10.2 162.358 10.125 162.025 10.075C161.692 10.025 161.35 10 161 10V9H156V4H149V20H154.675C154.858 20.3833 155.071 20.7417 155.313 21.075C155.554 21.4083 155.825 21.7167 156.125 22H147ZM161 12C162.383 12 163.563 12.4875 164.538 13.4625C165.513 14.4375 166 15.6167 166 17C166 18.3833 165.513 19.5625 164.538 20.5375C163.563 21.5125 162.383 22 161 22C159.617 22 158.438 21.5125 157.463 20.5375C156.488 19.5625 156 18.3833 156 17C156 15.6167 156.488 14.4375 157.463 13.4625C158.438 12.4875 159.617 12 161 12Z" fill="black"/>
<path d="M180 21L170 9L173 3H187L190 9L180 21ZM177.625 8H182.375L180.875 5H179.125L177.625 8ZM179 16.675V10H173.45L179 16.675ZM181 16.675L186.55 10H181V16.675ZM184.6 8H187.25L185.75 5H183.1L184.6 8ZM172.75 8H175.4L176.9 5H174.25L172.75 8Z" fill="black"/>
<path d="M199 22V6.97505H214V17L209 22H199ZM201 20H208V16H212V9.00005H201V20ZM196.3 19.075L193.675 4.30005L208.45 1.67505L209.05 5.00005H207L206.825 4.00005L196 5.92505L197 11.575V18.95L196.3 19.075ZM201 20H208L212 16V9.00005H201V20Z" fill="black"/>
<path d="M230 22V18.925L236.575 12.375L239.65 15.425L233.075 22H230ZM231.5 20.5H232.45L235.475 17.45L235.025 16.975L234.55 16.525L231.5 19.55V20.5ZM220 22V2H230L236 8V11H234V9H229V4H222V20H228V22H220ZM235.025 16.975L234.55 16.525L235.475 17.45L235.025 16.975Z" fill="black"/>
<mask id="mask2_1_4425" style="mask-type:alpha" maskUnits="userSpaceOnUse" x="240" y="0" width="24" height="24">
<rect x="240" width="24" height="24" fill="#D9D9D9"/>
</mask>
<g mask="url(#mask2_1_4425)">
<path d="M243.878 21C243.33 21 242.861 20.8042 242.47 20.4125C242.08 20.0208 241.885 19.55 241.885 19V8C241.885 7.45 242.08 6.97917 242.47 6.5875C242.861 6.19583 243.33 6 243.878 6H247.865V4C247.865 3.45 248.061 2.97917 248.451 2.5875C248.841 2.19583 249.311 2 249.859 2H253.846C254.394 2 254.864 2.19583 255.254 2.5875C255.645 2.97917 255.84 3.45 255.84 4V6H259.827C260.375 6 260.844 6.19583 261.235 6.5875C261.625 6.97917 261.821 7.45 261.821 8V19C261.821 19.55 261.625 20.0208 261.235 20.4125C260.844 20.8042 260.375 21 259.827 21H243.878ZM243.878 19H259.827V8H243.878V19ZM249.859 6H253.846V4H249.859V6Z" fill="black"/>
</g>
<path d="M278.581 13.5526H278.04L277.848 13.3676C278.599 12.4919 278.982 11.3591 278.916 10.2071C278.85 9.05502 278.341 7.9733 277.494 7.189C276.648 6.40471 275.531 5.97884 274.377 6.00081C273.223 6.02278 272.123 6.49088 271.307 7.30683C270.491 8.12278 270.023 9.22312 270.001 10.3768C269.979 11.5306 270.405 12.6479 271.189 13.4944C271.973 14.3408 273.055 14.8504 274.207 14.9163C275.359 14.9822 276.492 14.5992 277.368 13.8477L277.553 14.0399V14.5817L280.979 18.0021L282 16.9812L278.581 13.5526ZM274.468 13.5526C273.858 13.5526 273.262 13.3717 272.755 13.0328C272.248 12.6939 271.852 12.2122 271.619 11.6487C271.386 11.0851 271.324 10.465 271.443 9.86672C271.562 9.26845 271.856 8.7189 272.288 8.28757C272.719 7.85624 273.268 7.5625 273.867 7.44349C274.465 7.32449 275.085 7.38557 275.649 7.619C276.212 7.85244 276.694 8.24774 277.033 8.75494C277.372 9.26213 277.553 9.85842 277.553 10.4684C277.553 11.2864 277.228 12.0709 276.649 12.6493C276.071 13.2277 275.286 13.5526 274.468 13.5526Z" fill="black"/>
<path d="M302.059 9.02L302.979 9.94L293.919 19H292.999V18.08L302.059 9.02ZM305.659 3C305.409 3 305.149 3.1 304.959 3.29L303.129 5.12L306.879 8.87L308.709 7.04C309.099 6.65 309.099 6.02 308.709 5.63L306.369 3.29C306.169 3.09 305.919 3 305.659 3ZM302.059 6.19L290.999 17.25V21H294.749L305.809 9.94L302.059 6.19Z" fill="black"/>
<g clip-path="url(#clip2_1_4425)">
<path d="M12.2767 27.6667C10.5737 27.6669 8.90893 28.1721 7.493 29.1183C6.07706 30.0646 4.97352 31.4095 4.32191 32.9829C3.67031 34.5564 3.4999 36.2877 3.83225 37.958C4.16459 39.6283 4.98476 41.1625 6.18904 42.3667C7.39332 43.5708 8.92762 44.3908 10.5979 44.723C12.2683 45.0552 13.9996 44.8846 15.5729 44.2329C17.1463 43.5811 18.4911 42.4774 19.4372 41.0614C20.3834 39.6454 20.8884 37.9806 20.8884 36.2776C20.8875 33.994 19.9799 31.8042 18.365 30.1895C16.7502 28.5748 14.5603 27.6674 12.2767 27.6667V27.6667ZM12.2767 30.2501C12.7876 30.2501 13.2871 30.4016 13.7119 30.6855C14.1367 30.9693 14.4679 31.3728 14.6634 31.8448C14.8589 32.3169 14.9101 32.8363 14.8104 33.3374C14.7107 33.8385 14.4647 34.2988 14.1034 34.6601C13.7421 35.0214 13.2818 35.2674 12.7807 35.3671C12.2796 35.4668 11.7601 35.4156 11.2881 35.2201C10.816 35.0246 10.4126 34.6935 10.1287 34.2686C9.84487 33.8438 9.69336 33.3443 9.69336 32.8334C9.69336 32.1483 9.96553 31.4912 10.45 31.0067C10.9345 30.5223 11.5915 30.2501 12.2767 30.2501V30.2501ZM12.2767 42.4776C11.2536 42.4775 10.2464 42.2244 9.34494 41.7406C8.44346 41.2569 7.67567 40.5576 7.11002 39.7051C7.13586 37.9917 10.5542 37.0526 12.2767 37.0526C13.9992 37.0526 17.4175 37.9909 17.4434 39.7051C16.8777 40.5576 16.1099 41.2569 15.2084 41.7406C14.3069 42.2244 13.2998 42.4775 12.2767 42.4776V42.4776Z" fill="white"/>
</g>
<path d="M26 45.5V30.5H32V26.5H40V30.5H46V45.5H26ZM34 30.5H38V28.5H34V30.5ZM44 39.5H39V41.5H33V39.5H28V43.5H44V39.5ZM35 39.5H37V37.5H35V39.5ZM28 37.5H33V35.5H39V37.5H44V32.5H28V37.5Z" fill="white"/>
<mask id="mask3_1_4425" style="mask-type:alpha" maskUnits="userSpaceOnUse" x="48" y="24" width="24" height="24">
<rect x="48" y="24" width="24" height="24" fill="#D9D9D9"/>
</mask>
<g mask="url(#mask3_1_4425)">
<path d="M54 46C53.1667 46 52.4583 45.7083 51.875 45.125C51.2917 44.5417 51 43.8333 51 43V40H54V26L55.5 27.5L57 26L58.5 27.5L60 26L61.5 27.5L63 26L64.5 27.5L66 26L67.5 27.5L69 26V43C69 43.8333 68.7083 44.5417 68.125 45.125C67.5417 45.7083 66.8333 46 66 46H54ZM66 44C66.2833 44 66.5208 43.9042 66.7125 43.7125C66.9042 43.5208 67 43.2833 67 43V29H56V40H65V43C65 43.2833 65.0958 43.5208 65.2875 43.7125C65.4792 43.9042 65.7167 44 66 44ZM57 33V31H63V33H57ZM57 36V34H63V36H57ZM65 33C64.7167 33 64.4792 32.9042 64.2875 32.7125C64.0958 32.5208 64 32.2833 64 32C64 31.7167 64.0958 31.4792 64.2875 31.2875C64.4792 31.0958 64.7167 31 65 31C65.2833 31 65.5208 31.0958 65.7125 31.2875C65.9042 31.4792 66 31.7167 66 32C66 32.2833 65.9042 32.5208 65.7125 32.7125C65.5208 32.9042 65.2833 33 65 33ZM65 36C64.7167 36 64.4792 35.9042 64.2875 35.7125C64.0958 35.5208 64 35.2833 64 35C64 34.7167 64.0958 34.4792 64.2875 34.2875C64.4792 34.0958 64.7167 34 65 34C65.2833 34 65.5208 34.0958 65.7125 34.2875C65.9042 34.4792 66 34.7167 66 35C66 35.2833 65.9042 35.5208 65.7125 35.7125C65.5208 35.9042 65.2833 36 65 36ZM54 44H63V42H53V43C53 43.2833 53.0958 43.5208 53.2875 43.7125C53.4792 43.9042 53.7167 44 54 44Z" fill="white"/>
</g>
<path d="M72 42V40.425C72 39.7083 72.3667 39.125 73.1 38.675C73.8333 38.225 74.8 38 76 38C76.2167 38 76.425 38.0042 76.625 38.0125C76.825 38.0208 77.0167 38.0417 77.2 38.075C76.9667 38.425 76.7917 38.7917 76.675 39.175C76.5583 39.5583 76.5 39.9583 76.5 40.375V42H72ZM78 42V40.375C78 39.8417 78.1458 39.3542 78.4375 38.9125C78.7292 38.4708 79.1417 38.0833 79.675 37.75C80.2083 37.4167 80.8458 37.1667 81.5875 37C82.3292 36.8333 83.1333 36.75 84 36.75C84.8833 36.75 85.6958 36.8333 86.4375 37C87.1792 37.1667 87.8167 37.4167 88.35 37.75C88.8833 38.0833 89.2917 38.4708 89.575 38.9125C89.8583 39.3542 90 39.8417 90 40.375V42H78ZM91.5 42V40.375C91.5 39.9417 91.4458 39.5333 91.3375 39.15C91.2292 38.7667 91.0667 38.4083 90.85 38.075C91.0333 38.0417 91.2208 38.0208 91.4125 38.0125C91.6042 38.0042 91.8 38 92 38C93.2 38 94.1667 38.2208 94.9 38.6625C95.6333 39.1042 96 39.6917 96 40.425V42H91.5ZM80.125 40H87.9C87.7333 39.6667 87.2708 39.375 86.5125 39.125C85.7542 38.875 84.9167 38.75 84 38.75C83.0833 38.75 82.2458 38.875 81.4875 39.125C80.7292 39.375 80.275 39.6667 80.125 40ZM76 37C75.45 37 74.9792 36.8042 74.5875 36.4125C74.1958 36.0208 74 35.55 74 35C74 34.4333 74.1958 33.9583 74.5875 33.575C74.9792 33.1917 75.45 33 76 33C76.5667 33 77.0417 33.1917 77.425 33.575C77.8083 33.9583 78 34.4333 78 35C78 35.55 77.8083 36.0208 77.425 36.4125C77.0417 36.8042 76.5667 37 76 37ZM92 37C91.45 37 90.9792 36.8042 90.5875 36.4125C90.1958 36.0208 90 35.55 90 35C90 34.4333 90.1958 33.9583 90.5875 33.575C90.9792 33.1917 91.45 33 92 33C92.5667 33 93.0417 33.1917 93.425 33.575C93.8083 33.9583 94 34.4333 94 35C94 35.55 93.8083 36.0208 93.425 36.4125C93.0417 36.8042 92.5667 37 92 37ZM84 36C83.1667 36 82.4583 35.7083 81.875 35.125C81.2917 34.5417 81 33.8333 81 33C81 32.15 81.2917 31.4375 81.875 30.8625C82.4583 30.2875 83.1667 30 84 30C84.85 30 85.5625 30.2875 86.1375 30.8625C86.7125 31.4375 87 32.15 87 33C87 33.8333 86.7125 34.5417 86.1375 35.125C85.5625 35.7083 84.85 36 84 36ZM84 34C84.2833 34 84.5208 33.9042 84.7125 33.7125C84.9042 33.5208 85 33.2833 85 33C85 32.7167 84.9042 32.4792 84.7125 32.2875C84.5208 32.0958 84.2833 32 84 32C83.7167 32 83.4792 32.0958 83.2875 32.2875C83.0958 32.4792 83 32.7167 83 33C83 33.2833 83.0958 33.5208 83.2875 33.7125C83.4792 33.9042 83.7167 34 84 34Z" fill="white"/>
<mask id="mask4_1_4425" style="mask-type:alpha" maskUnits="userSpaceOnUse" x="96" y="24" width="24" height="24">
<rect x="96" y="24" width="24" height="24" fill="#D9D9D9"/>
</mask>
<g mask="url(#mask4_1_4425)">
<path d="M102 44C101.45 44 100.979 43.8042 100.588 43.4125C100.196 43.0208 100 42.55 100 42C100 41.45 100.196 40.9792 100.588 40.5875C100.979 40.1958 101.45 40 102 40C102.55 40 103.021 40.1958 103.413 40.5875C103.804 40.9792 104 41.45 104 42C104 42.55 103.804 43.0208 103.413 43.4125C103.021 43.8042 102.55 44 102 44ZM108 44C107.45 44 106.979 43.8042 106.588 43.4125C106.196 43.0208 106 42.55 106 42C106 41.45 106.196 40.9792 106.588 40.5875C106.979 40.1958 107.45 40 108 40C108.55 40 109.021 40.1958 109.413 40.5875C109.804 40.9792 110 41.45 110 42C110 42.55 109.804 43.0208 109.413 43.4125C109.021 43.8042 108.55 44 108 44ZM114 44C113.45 44 112.979 43.8042 112.588 43.4125C112.196 43.0208 112 42.55 112 42C112 41.45 112.196 40.9792 112.588 40.5875C112.979 40.1958 113.45 40 114 40C114.55 40 115.021 40.1958 115.413 40.5875C115.804 40.9792 116 41.45 116 42C116 42.55 115.804 43.0208 115.413 43.4125C115.021 43.8042 114.55 44 114 44ZM102 38C101.45 38 100.979 37.8042 100.588 37.4125C100.196 37.0208 100 36.55 100 36C100 35.45 100.196 34.9792 100.588 34.5875C100.979 34.1958 101.45 34 102 34C102.55 34 103.021 34.1958 103.413 34.5875C103.804 34.9792 104 35.45 104 36C104 36.55 103.804 37.0208 103.413 37.4125C103.021 37.8042 102.55 38 102 38ZM108 38C107.45 38 106.979 37.8042 106.588 37.4125C106.196 37.0208 106 36.55 106 36C106 35.45 106.196 34.9792 106.588 34.5875C106.979 34.1958 107.45 34 108 34C108.55 34 109.021 34.1958 109.413 34.5875C109.804 34.9792 110 35.45 110 36C110 36.55 109.804 37.0208 109.413 37.4125C109.021 37.8042 108.55 38 108 38ZM114 38C113.45 38 112.979 37.8042 112.588 37.4125C112.196 37.0208 112 36.55 112 36C112 35.45 112.196 34.9792 112.588 34.5875C112.979 34.1958 113.45 34 114 34C114.55 34 115.021 34.1958 115.413 34.5875C115.804 34.9792 116 35.45 116 36C116 36.55 115.804 37.0208 115.413 37.4125C115.021 37.8042 114.55 38 114 38ZM102 32C101.45 32 100.979 31.8042 100.588 31.4125C100.196 31.0208 100 30.55 100 30C100 29.45 100.196 28.9792 100.588 28.5875C100.979 28.1958 101.45 28 102 28C102.55 28 103.021 28.1958 103.413 28.5875C103.804 28.9792 104 29.45 104 30C104 30.55 103.804 31.0208 103.413 31.4125C103.021 31.8042 102.55 32 102 32ZM108 32C107.45 32 106.979 31.8042 106.588 31.4125C106.196 31.0208 106 30.55 106 30C106 29.45 106.196 28.9792 106.588 28.5875C106.979 28.1958 107.45 28 108 28C108.55 28 109.021 28.1958 109.413 28.5875C109.804 28.9792 110 29.45 110 30C110 30.55 109.804 31.0208 109.413 31.4125C109.021 31.8042 108.55 32 108 32ZM114 32C113.45 32 112.979 31.8042 112.588 31.4125C112.196 31.0208 112 30.55 112 30C112 29.45 112.196 28.9792 112.588 28.5875C112.979 28.1958 113.45 28 114 28C114.55 28 115.021 28.1958 115.413 28.5875C115.804 28.9792 116 29.45 116 30C116 30.55 115.804 31.0208 115.413 31.4125C115.021 31.8042 114.55 32 114 32Z" fill="white"/>
</g>
<path d="M122 46V26H142V42H126L122 46ZM125.15 40H140V28H124V41.125L125.15 40ZM126 38H134V36H126V38ZM126 35H138V33H126V35ZM126 32H138V30H126V32Z" fill="white"/>
<path d="M160.5 44H161.5V40H160.5V44ZM161 39C161.133 39 161.25 38.95 161.35 38.85C161.45 38.75 161.5 38.6333 161.5 38.5C161.5 38.3667 161.45 38.25 161.35 38.15C161.25 38.05 161.133 38 161 38C160.867 38 160.75 38.05 160.65 38.15C160.55 38.25 160.5 38.3667 160.5 38.5C160.5 38.6333 160.55 38.75 160.65 38.85C160.75 38.95 160.867 39 161 39ZM151 38H154.675C154.858 37.6167 155.071 37.2583 155.313 36.925C155.554 36.5917 155.825 36.2833 156.125 36H151V38ZM151 42H154.075C154.025 41.6667 154 41.3333 154 41C154 40.6667 154.025 40.3333 154.075 40H151V42ZM147 46V26H157L163 32V34.3C162.683 34.2 162.358 34.125 162.025 34.075C161.692 34.025 161.35 34 161 34V33H156V28H149V44H154.675C154.858 44.3833 155.071 44.7417 155.313 45.075C155.554 45.4083 155.825 45.7167 156.125 46H147ZM161 36C162.383 36 163.563 36.4875 164.538 37.4625C165.513 38.4375 166 39.6167 166 41C166 42.3833 165.513 43.5625 164.538 44.5375C163.563 45.5125 162.383 46 161 46C159.617 46 158.438 45.5125 157.463 44.5375C156.488 43.5625 156 42.3833 156 41C156 39.6167 156.488 38.4375 157.463 37.4625C158.438 36.4875 159.617 36 161 36Z" fill="white"/>
<path d="M180 45L170 33L173 27H187L190 33L180 45ZM177.625 32H182.375L180.875 29H179.125L177.625 32ZM179 40.675V34H173.45L179 40.675ZM181 40.675L186.55 34H181V40.675ZM184.6 32H187.25L185.75 29H183.1L184.6 32ZM172.75 32H175.4L176.9 29H174.25L172.75 32Z" fill="white"/>
<path d="M199 46V30.975H214V41L209 46H199ZM201 44H208V40H212V33H201V44ZM196.3 43.075L193.675 28.3L208.45 25.675L209.05 29H207L206.825 28L196 29.925L197 35.575V42.95L196.3 43.075ZM201 44H208L212 40V33H201V44Z" fill="white"/>
<path d="M230 46V42.925L236.575 36.375L239.65 39.425L233.075 46H230ZM231.5 44.5H232.45L235.475 41.45L235.025 40.975L234.55 40.525L231.5 43.55V44.5ZM220 46V26H230L236 32V35H234V33H229V28H222V44H228V46H220ZM235.025 40.975L234.55 40.525L235.475 41.45L235.025 40.975Z" fill="white"/>
<mask id="mask5_1_4425" style="mask-type:alpha" maskUnits="userSpaceOnUse" x="240" y="24" width="24" height="24">
<rect x="240" y="24" width="24" height="24" fill="#D9D9D9"/>
</mask>
<g mask="url(#mask5_1_4425)">
<path d="M243.878 45C243.33 45 242.861 44.8042 242.47 44.4125C242.08 44.0208 241.885 43.55 241.885 43V32C241.885 31.45 242.08 30.9792 242.47 30.5875C242.861 30.1958 243.33 30 243.878 30H247.865V28C247.865 27.45 248.061 26.9792 248.451 26.5875C248.841 26.1958 249.311 26 249.859 26H253.846C254.394 26 254.864 26.1958 255.254 26.5875C255.645 26.9792 255.84 27.45 255.84 28V30H259.827C260.375 30 260.844 30.1958 261.235 30.5875C261.625 30.9792 261.821 31.45 261.821 32V43C261.821 43.55 261.625 44.0208 261.235 44.4125C260.844 44.8042 260.375 45 259.827 45H243.878ZM243.878 43H259.827V32H243.878V43ZM249.859 30H253.846V28H249.859V30Z" fill="white"/>
</g>
<path d="M278.581 37.5526H278.04L277.848 37.3676C278.599 36.4919 278.982 35.3591 278.916 34.2071C278.85 33.055 278.341 31.9733 277.494 31.189C276.648 30.4047 275.531 29.9788 274.377 30.0008C273.223 30.0228 272.123 30.4909 271.307 31.3068C270.491 32.1228 270.023 33.2231 270.001 34.3768C269.979 35.5306 270.405 36.6479 271.189 37.4944C271.973 38.3408 273.055 38.8504 274.207 38.9163C275.359 38.9822 276.492 38.5992 277.368 37.8477L277.553 38.0399V38.5817L280.979 42.0021L282 40.9812L278.581 37.5526ZM274.468 37.5526C273.858 37.5526 273.262 37.3717 272.755 37.0328C272.248 36.6939 271.852 36.2122 271.619 35.6487C271.386 35.0851 271.324 34.465 271.443 33.8667C271.562 33.2684 271.856 32.7189 272.288 32.2876C272.719 31.8562 273.268 31.5625 273.867 31.4435C274.465 31.3245 275.085 31.3856 275.649 31.619C276.212 31.8524 276.694 32.2477 277.033 32.7549C277.372 33.2621 277.553 33.8584 277.553 34.4684C277.553 35.2864 277.228 36.0709 276.649 36.6493C276.071 37.2277 275.286 37.5526 274.468 37.5526Z" fill="white"/>
<path d="M302.059 33.02L302.979 33.94L293.919 43H292.999V42.08L302.059 33.02ZM305.659 27C305.409 27 305.149 27.1 304.959 27.29L303.129 29.12L306.879 32.87L308.709 31.04C309.099 30.65 309.099 30.02 308.709 29.63L306.369 27.29C306.169 27.09 305.919 27 305.659 27ZM302.059 30.19L290.999 41.25V45H294.749L305.809 33.94L302.059 30.19Z" fill="white"/>
</g>
<defs>
<clipPath id="clip0_1_4425">
<rect width="312" height="48" fill="white"/>
</clipPath>
<clipPath id="clip1_1_4425">
<rect width="20" height="20" fill="white" transform="translate(2 2)"/>
</clipPath>
<clipPath id="clip2_1_4425">
<rect width="20" height="20" fill="white" transform="translate(2 26)"/>
</clipPath>
</defs>
</svg>
