<svg width="38" height="38" viewBox="0 0 38 38" fill="none" xmlns="http://www.w3.org/2000/svg">
<path d="M37.5 19C37.5 29.2173 29.2173 37.5 19 37.5C8.78273 37.5 0.5 29.2173 0.5 19C0.5 8.78273 8.78273 0.5 19 0.5C29.2173 0.5 37.5 8.78273 37.5 19Z" fill="white" stroke="#CBACEC"/>
<path d="M23.7306 15.4884C22.6539 17.1729 20.5988 18.6993 19.0153 21.5982C17.4215 24.5161 23.5475 26.2666 26.4303 21.2364C30.4498 14.2213 24.8087 13.8038 23.7306 15.4884Z" fill="url(#paint0_linear_5409_5773)"/>
<path d="M26.8735 14.9963C26.1015 14.5085 25.227 15.1618 24.4184 15.862C23.6098 16.5608 23.4853 21.7624 23.2641 21.9484C23.0429 22.133 22.5742 19.4318 22.5742 19.4318C22.5742 19.4318 21.8125 23.1715 20.8442 23.4689C19.876 23.7663 18.877 23.1203 18.877 23.1203C19.085 23.9435 20.4341 24.7741 22.2182 24.7638C25.0556 24.7462 25.8906 21.7946 26.2524 21.3683C29.3124 17.7751 27.644 15.4841 26.872 14.9963H26.8735Z" fill="url(#paint1_linear_5409_5773)"/>
<path d="M26.6865 14.8997C26.6865 14.8997 28.103 16.0144 27.9579 17.6404C27.7529 19.9226 26.4609 20.6272 26.0917 21.2424C25.7226 21.8591 25.5351 22.9357 24.1508 23.8234C21.8642 25.2897 19.7988 24.1633 19.7988 24.1633C21.1348 25.0905 22.3506 25.3263 23.5898 24.7917C25.9584 23.7707 26.0683 21.9118 26.3496 21.4284C26.6293 20.9436 27.6987 20.1306 28.0619 18.8283C28.8969 15.8386 26.6865 14.8997 26.6865 14.8997Z" fill="url(#paint2_linear_5409_5773)"/>
<path d="M24.8691 18.3081C27.0239 21.8427 24.3008 24.0239 24.3008 24.0239C28.1621 21.2246 24.8691 18.3081 24.8691 18.3081Z" fill="url(#paint3_linear_5409_5773)"/>
<path d="M24.9941 21.3051C24.9106 23.479 23.5381 24.5131 23.5381 24.5131C25.0952 23.5581 25.397 22.2646 25.4248 21.0224C25.4526 19.7803 24.3906 18.0239 24.3906 18.0239C24.3906 18.0239 25.041 20.0864 24.9941 21.3051Z" fill="url(#paint4_linear_5409_5773)"/>
<path d="M14.3144 23.4613C14.0566 23.5389 13.7431 24.4574 13.7724 24.6083L14.2851 26.9901L25.4222 26.7176C25.4222 26.7176 25.3314 24.0648 24.7001 23.4906C24.0687 22.9164 19.2318 21.9818 14.3159 23.4598L14.3144 23.4613Z" fill="url(#paint5_linear_5409_5773)"/>
<path d="M19.5512 22.6661C15.5259 22.7056 14.2236 23.4307 14.2236 23.4307L14.3745 24.3961C14.4346 23.5113 15.4204 22.8741 19.6318 22.7467C24.9286 22.5855 24.4482 24.5572 24.4482 24.5572L24.87 23.6519C24.3237 22.8521 21.7045 22.6441 19.5527 22.6661H19.5512Z" fill="url(#paint6_linear_5409_5773)"/>
<path d="M28.2498 26.8176C27.223 26.718 23.0673 26.3884 22.6395 24.9997C22.1063 23.2727 22.7421 21.0579 22.7421 21.0579L16.3349 20.7327C17.0556 21.9499 17.0292 23.2434 16.9985 24.5559C16.9648 25.9973 12.6567 27.0124 11.1757 27.1779C10.3657 27.2687 7.51074 28.2209 7.11816 29.6315C6.83105 30.6613 6.70361 31.3337 6.67285 32.1086C10.0332 35.0661 14.4218 36.8575 19.2221 36.8575C21.1835 36.8575 23.076 36.5587 24.8587 36.0035L29.5711 33.7829C30.6038 33.109 31.5691 32.3371 32.4524 31.4816C32.3367 30.6569 32.1521 30.0768 31.4314 28.5549C30.9334 27.5046 28.5443 26.8454 28.2498 26.8176Z" fill="#F7D4AB"/>
<path d="M22.5883 23.8337C22.559 23.5144 22.5121 22.7117 22.5019 22.2927C22.414 22.4011 16.9531 22.199 16.7422 21.884L16.1079 21.8899C16.1079 21.8899 16.2954 23.9245 15.998 25.3821C15.938 25.6794 14.1684 26.0984 13.0068 26.3444C13.0903 26.4089 13.3877 26.6125 13.4551 26.6491C14.4497 26.7487 15.3052 26.8659 15.7109 26.7956C16.2075 26.7092 17.0425 26.3254 17.6474 26.0442C20.9228 24.5237 21.9438 24.0227 21.9438 24.0227C22.0976 25.4362 23.1288 26.3708 23.0732 26.3576C23.8964 26.5612 24.9013 26.5979 25.7919 26.5744C26.0146 26.4821 26.2328 26.3474 26.4569 26.2111C23.9667 25.8845 23.2167 25.4553 23.0365 25.3308C22.8447 25.1975 22.6601 24.5705 22.5912 23.8352L22.5883 23.8337Z" fill="url(#paint7_linear_5409_5773)"/>
<path d="M19.084 28.0451C19.084 28.0451 20.2617 28.256 20.5723 28.6266C20.5723 28.6266 20.2309 27.676 19.084 28.0451Z" fill="url(#paint8_linear_5409_5773)"/>
<path d="M20.6118 27.8137C21.6343 27.0066 22.6567 27.238 23.9619 27.0842C25.2671 26.9304 27.5229 26.4309 27.5229 26.4309C26.9296 26.5481 21.8569 26.7209 21.3984 26.8352C20.9399 26.9509 20.6104 27.8137 20.6104 27.8137H20.6118Z" fill="url(#paint9_linear_5409_5773)"/>
<path d="M18.1103 26.9523C17.5463 26.7605 13.2353 26.4895 12.459 26.5671C12.459 26.5671 17.8979 27.1193 18.9907 27.8063C18.9907 27.8063 18.6728 27.1442 18.1088 26.9523H18.1103Z" fill="url(#paint10_linear_5409_5773)"/>
<path d="M16.1221 24.4604C19.8823 25.6704 22.5175 22.9209 22.5175 22.9209C22.5175 22.9209 22.5248 22.0083 22.6435 21.2788C22.352 21.2524 15.9316 21.0181 15.9316 21.0181C16.0474 21.6435 16.1235 24.4604 16.1235 24.4604H16.1221Z" fill="url(#paint11_linear_5409_5773)"/>
<path d="M22.352 3.64971C19.5073 3.03594 15.4278 22.1798 22.5 20.4206C23.6762 20.1276 26.0844 18.5808 26.8784 14.8938C27.3032 13.1887 28.7563 5.03105 22.3535 3.64824L22.352 3.64971Z" fill="url(#paint12_linear_5409_5773)"/>
<path d="M10.8994 14.7383C10.9199 14.8218 11.9263 18.1821 14.5073 19.2104C17.5498 20.4233 18.7553 18.8852 21.6029 17.6372C21.6029 17.6372 14.7197 12.7139 13.3647 11.3677C13.3647 11.3677 11.2715 13.039 10.8994 14.7397V14.7383Z" fill="url(#paint13_linear_5409_5773)"/>
<path d="M20.4387 6.09709C16.3855 5.47894 13.3255 8.77188 12.7 13.3378C12.1463 17.3807 12.8011 19.1326 15.0057 20.9051C16.4134 22.0359 17.8709 23.7864 19.3386 23.8025C21.3499 23.8245 22.3987 22.0813 22.9451 21.6053C24.508 20.2444 26.7522 19.408 26.0051 13.8959C25.447 9.78408 23.8694 6.03264 20.4387 6.09563V6.09709Z" fill="#F7D4AB"/>
<path d="M15.5087 11.6344C14.5771 11.5582 13.9003 11.9727 13.4345 12.3902C12.3476 13.3599 13.0156 15.7828 13.0156 15.7828C13.0156 15.7828 15.2011 18.5381 18.8295 16.8448C18.5146 15.0401 18.8236 11.9039 15.5087 11.6344Z" fill="url(#paint14_linear_5409_5773)"/>
<path d="M25.1259 12.2159C24.6381 11.8672 23.9321 11.7003 23.0034 11.8057C20.0254 12.1426 20.0796 15.1031 19.8057 16.7906C23.4648 18.1924 25.8671 15.437 25.8671 15.437C25.8671 15.437 26.4399 13.1534 25.1259 12.2144V12.2159Z" fill="url(#paint15_linear_5409_5773)"/>
<path d="M20.8569 5.78966C20.8569 5.78966 16.3305 4.57531 14.3105 8.00302C12.3652 11.3018 12.7197 14.7486 12.4912 17.2154C12.4912 17.2154 12.8691 16.6719 13.0947 14.9683C13.4214 12.5074 14.5918 10.8668 15.7358 9.77986C16.7744 8.90682 18.3344 7.1622 20.5786 6.54258C21.185 6.48985 22.4931 6.83701 23.5434 8.57577C25.3085 11.5025 24.7826 13.1724 26.1024 15.9629C26.1024 15.9629 26.495 7.61337 20.8583 5.79112L20.8569 5.78966Z" fill="#F0C499"/>
<path d="M23.4507 14.7413C22.3975 14.9933 21.3765 16.2647 21.6299 17.4571C21.8848 18.6495 22.648 19.6602 23.6617 20.0557C24.9873 20.5728 25.9072 18.7711 26.0889 16.5621C26.19 15.3463 24.5025 14.4879 23.4493 14.7398L23.4507 14.7413Z" fill="url(#paint16_radial_5409_5773)"/>
<path d="M24.7145 15.8253C24.3571 15.9293 24.1095 16.1798 24.1637 16.3863C24.2179 16.5928 24.5504 16.6763 24.9078 16.5723C25.2653 16.4683 25.5128 16.2178 25.4601 16.0113C25.4059 15.8048 25.0734 15.7213 24.7159 15.8253H24.7145Z" fill="url(#paint17_linear_5409_5773)"/>
<path d="M10.5338 9.13086C9.98153 11.709 10.5484 14.2915 11.0054 15.7036C11.1549 15.0488 11.858 13.9838 12.3736 13.1225C13.15 11.8305 14.3614 10.3818 14.3614 10.3818C16.1617 8.0835 18.4234 6.72267 20.1196 5.7925C22.3652 5.43069 23.1094 4.28958 22.3638 3.65385C19.626 1.32183 12.7383 1.69683 10.5338 9.13086Z" fill="url(#paint18_linear_5409_5773)"/>
<path d="M21.5703 5.67983C21.0972 5.64321 20.4336 5.77358 20.4336 5.77358C22.2471 5.85854 23.3779 7.38489 23.8569 8.08069C25.0083 9.7506 25.3261 11.025 25.6059 12.002C26.0864 13.669 25.7509 16.6573 26.7998 14.6724C26.0805 12.6275 25.8344 10.9151 25.1049 9.34484C23.8496 6.64222 22.2676 5.73256 21.5703 5.67836V5.67983Z" fill="url(#paint19_linear_5409_5773)"/>
<path d="M15.2581 15.3199C14.2855 15.0826 12.7723 15.8809 12.8133 16.9385C12.9115 19.439 13.8856 20.1523 15.1644 20.3237C16.1561 20.457 16.8255 18.6128 17.0496 17.5816C17.2737 16.5503 16.2308 15.5557 15.2581 15.3199Z" fill="url(#paint20_radial_5409_5773)"/>
<path d="M13.9282 16.1226C13.5663 16.0581 13.2455 16.1738 13.2119 16.3818C13.1782 16.5913 13.4448 16.8125 13.8066 16.8784C14.1684 16.9429 14.4892 16.8257 14.5229 16.6177C14.5566 16.4082 14.29 16.187 13.9282 16.1211V16.1226Z" fill="url(#paint21_linear_5409_5773)"/>
<path d="M15.0925 8.46169C13.5984 9.81959 11.5696 12.3669 11.4348 14.9992C11.4216 15.2732 11.9958 14.5188 12.0486 14.7224C13.2585 11.2756 14.5461 10.1521 15.1979 9.49733C18.7326 5.95536 20.6413 5.7415 20.6413 5.7415C19.3888 4.72051 16.7668 6.93827 15.0925 8.46023V8.46169Z" fill="url(#paint22_linear_5409_5773)"/>
<path d="M18.6474 4.49612C17.3613 4.33498 15.4497 4.91799 13.7915 6.2627C12.1055 7.62207 11.2222 9.43993 10.8955 10.7378C10.5572 12.0547 10.6465 12.8647 10.6333 12.8486C10.6495 12.8471 10.9102 11.9843 11.5606 10.8564C12.2036 9.7241 13.2832 8.38085 14.6719 7.29688C16.0737 6.19386 17.1299 5.36623 18.3164 5.15822C19.8325 4.89455 20.5019 5.42628 20.5107 5.438C20.2031 5.08058 19.5337 4.60744 18.6474 4.49612Z" fill="url(#paint23_linear_5409_5773)"/>
<path d="M13.9759 9.60693C13.9759 9.60693 13.3797 10.0859 12.5521 10.9809C12.1449 11.435 11.6717 12.0151 11.2879 12.7988C10.9041 13.5722 10.6888 14.6181 10.8031 15.642C10.888 16.7158 11.4051 17.6606 11.8885 18.2963C12.3734 18.9452 12.7352 19.4711 12.9139 20.0102C13.2537 21.0927 13.1453 21.8764 13.1761 21.8544C13.1365 21.8456 13.5438 21.081 13.3504 19.726C13.2508 19.0492 12.8568 18.3212 12.4788 17.6474C12.0965 16.9663 11.8314 16.2573 11.7742 15.4326C11.5926 13.7568 12.1785 12.3916 12.7747 11.3706C13.3826 10.3496 13.9246 9.68164 13.9788 9.60693H13.9759Z" fill="url(#paint24_linear_5409_5773)"/>
<path d="M26.7002 14.2783C26.4761 14.2651 26.0381 14.854 26.0381 14.854C25.7773 16.9443 25.7041 18.5337 25.7041 18.5337C26.5493 18.5337 26.7163 17.6372 27.0474 16.8476C27.5527 15.6406 27.8501 14.3457 26.7002 14.2769V14.2783Z" fill="#F0C499"/>
<path d="M26.479 16.4581C26.6079 17.3693 26.1934 17.8322 26.1934 17.8322C26.1934 17.8322 26.7617 17.2242 26.8804 16.6471C27.1074 15.5382 26.6636 15.3976 26.8774 15.1442C27.0518 14.9376 27.2422 15.629 27.2422 15.629C27.5557 14.1627 26.1772 14.3092 26.479 16.4581Z" fill="url(#paint25_linear_5409_5773)"/>
<path d="M12.2546 14.2316C10.9246 14.3459 11.197 15.6452 11.7024 16.8522C12.0334 17.6417 12.199 18.5382 13.0456 18.5382C13.0456 18.5382 12.9709 16.9474 12.7116 14.8586C12.7116 14.8586 12.4787 14.2126 12.2546 14.2316Z" fill="#F0C499"/>
<path d="M12.2718 16.4611C12.575 14.3122 11.1951 14.1657 11.5086 15.632C11.5086 15.632 11.699 14.9406 11.8733 15.1471C12.0872 15.4005 11.6433 15.5412 11.8704 16.65C11.989 17.2257 12.5574 17.8351 12.5574 17.8351C12.5574 17.8351 12.1428 17.3722 12.2718 16.4611Z" fill="url(#paint26_linear_5409_5773)"/>
<path d="M26.0996 16.0683L26.2021 14.6533C26.2021 14.6533 25.8403 12.5146 25.6367 12.103C25.6367 12.103 25.9019 15.2729 26.0996 16.0683Z" fill="url(#paint27_linear_5409_5773)"/>
<path d="M25.563 7.38929C25.1938 6.68178 24.7016 6.05043 24.1186 5.6271C23.54 5.19644 22.8838 5.02945 22.3682 5.0353C21.3208 5.07925 20.8477 5.47036 20.8125 5.47915C20.8403 5.47182 21.4966 5.22866 22.3784 5.44253C23.272 5.64468 24.0952 6.63783 24.7412 7.97229C25.4179 9.30676 25.8808 10.6266 26.2749 11.545C26.6543 12.4752 26.9736 13.0011 26.9721 12.9893C26.9633 12.9806 26.8623 12.3126 26.7099 11.2711C26.5385 10.2369 26.2924 8.79553 25.56 7.38929H25.563Z" fill="url(#paint28_linear_5409_5773)"/>
<path d="M12.4688 14.3794L12.5786 16.0669C12.7764 15.1118 13.0459 12.3711 13.0459 12.3711L12.7529 12.9365L12.4688 14.3794Z" fill="url(#paint29_linear_5409_5773)"/>
<path d="M22.372 2.93035C20.1528 2.04413 16.7792 1.81561 13.9463 3.86198C12.7832 4.70133 11.0254 6.72866 10.5273 9.15882C11.4018 7.00405 12.9385 4.92399 15.3862 4.0114C17.6684 3.16033 20.1864 3.30974 21.0946 3.44744C24.9647 4.03337 27.0902 8.68568 27.0902 8.68568C27.0902 8.68568 26.6244 4.62809 22.372 2.93035Z" fill="url(#paint30_linear_5409_5773)"/>
<path d="M15.9601 18.8604C15.8898 18.9923 15.9835 19.1299 16.1534 19.1885C16.3234 19.2457 16.6398 19.3775 17.0133 19.6558C16.7379 19.2545 16.0231 18.7418 15.9601 18.8604Z" fill="url(#paint31_linear_5409_5773)"/>
<path d="M21.6797 19.6633C22.0312 19.3572 22.3374 19.2034 22.5029 19.1331C22.6684 19.0627 22.7534 18.9192 22.6728 18.7917C22.6025 18.679 21.9258 19.2414 21.6797 19.6619V19.6633Z" fill="url(#paint32_linear_5409_5773)"/>
<path d="M17.6768 20.5405C17.9976 21.2363 19.7656 22.2046 21.0693 20.5229C21.0693 20.5229 19.2163 21.3608 17.6768 20.5405Z" fill="#F0C499"/>
<path d="M19.1694 19.3513C17.5054 19.3308 16.5356 19.0774 16.1416 18.9939V18.9983C16.1533 19.0144 16.1592 19.0247 16.1694 19.0408C16.3774 19.1345 16.6191 19.1975 16.9253 19.4202C17.1362 19.574 17.3428 20.6111 19.4126 20.5862C20.5434 20.573 21.226 20.1819 21.8925 19.3982C22.1005 19.1536 22.2998 19.0774 22.4638 18.9807C22.4682 18.9617 22.477 18.9529 22.4814 18.9338C22.0288 19.0642 21.1191 19.3748 19.1694 19.3528V19.3513Z" fill="#961B27"/>
<path d="M21.0326 19.5359C19.8709 19.801 18.2919 19.7688 17.7191 19.6633C17.3866 19.5139 17.4188 19.9431 17.4188 19.9431C18.1468 20.6975 18.7313 20.5554 19.3158 20.57C19.8929 20.5861 20.7557 20.3488 21.2669 19.8874C21.3167 19.7483 21.1937 19.4992 21.0311 19.5359H21.0326Z" fill="url(#paint33_linear_5409_5773)"/>
<path d="M18.1982 19.3865C17.8276 19.3689 17.602 19.3132 17.1377 19.2034C17.1377 19.2034 17.2241 19.3103 17.2783 19.4363C17.3486 19.6003 17.6987 20.1584 19.3657 20.1365C20.6196 20.1204 21.2788 19.6677 21.3681 19.3938C21.4223 19.2283 21.5381 19.155 21.5483 19.0994C21.5483 19.0994 21.1704 19.2869 20.2798 19.3821C19.3818 19.4788 19.0039 19.4246 18.1982 19.3865Z" fill="url(#paint34_linear_5409_5773)"/>
<path d="M19.5219 20.5085C16.9775 20.5085 17.8608 19.4539 16.1689 19.0408C16.1807 19.0437 16.5586 19.2488 17.0039 19.7717C17.4961 20.3474 17.9194 21.2541 19.3462 21.2409C20.6323 21.2278 21.3413 20.2786 21.7514 19.7571C22.2216 19.1609 22.456 18.9822 22.4663 18.9792C21.0849 19.363 21.5434 20.4426 19.5205 20.5085H19.5219Z" fill="#F86D78"/>
<path d="M20.6079 20.2446C20.3237 20.3442 19.8432 20.4629 19.3086 20.4878C18.9673 20.5039 18.396 20.4321 18.0166 20.2725C17.6255 20.0688 17.2754 19.6382 17.2021 19.5825C17.2944 19.7085 17.8467 21.0737 19.2793 21.0415C20.936 21.0034 21.2348 19.877 21.5307 19.543C21.3901 19.6924 21.04 20.0952 20.6079 20.2461V20.2446Z" fill="url(#paint35_linear_5409_5773)"/>
<path d="M20.004 20.5511C19.837 20.6097 19.2599 20.6507 19.2819 20.7107C19.3038 20.7693 19.6481 20.888 20.0831 20.7635C20.4215 20.6683 20.5797 20.472 20.5577 20.4134C20.5358 20.3548 20.171 20.4925 20.004 20.5511Z" fill="#FF9AA2"/>
<path d="M16.1968 19.1405C16.2979 19.1874 16.3755 19.1097 16.774 19.2562C16.774 19.2562 16.0943 18.8973 16.0489 18.9178C16.0181 18.9325 16.0489 19.0716 16.1968 19.1405Z" fill="#961B27"/>
<path d="M21.9102 19.2152C22.2588 19.057 22.3701 19.1303 22.4697 19.0819C22.6177 19.0101 22.6411 18.8754 22.6133 18.8563C22.5576 18.8182 21.9102 19.2152 21.9102 19.2152Z" fill="#961B27"/>
<path d="M17.2812 19.4436C17.2812 19.4436 18.0019 19.8362 19.4829 19.8303C20.5508 19.8259 21.3608 19.4128 21.3608 19.4128L21.4458 19.2136L17.1729 19.2429L17.2812 19.4436Z" fill="url(#paint36_linear_5409_5773)"/>
<path d="M20.2851 19.095C19.79 19.0554 19.7358 19.1374 19.3799 19.1418C19.0327 19.1448 18.7544 19.0422 18.3266 19.0818C17.7685 19.1316 17.0874 19.1755 16.2773 19.0071C16.2773 19.0071 16.5776 19.1946 18.0703 19.4846C18.5141 19.571 18.9082 19.656 19.3652 19.6457C19.9116 19.6487 20.3642 19.533 20.7876 19.4597C21.5039 19.3352 22.352 18.9749 22.3549 18.9587C21.9726 19.0686 20.8315 19.1374 20.2851 19.095Z" fill="#F86D78"/>
<path d="M20.0007 19.1416C19.8791 19.1694 19.4324 19.1973 19.2859 19.1973C19.1394 19.1973 18.7336 19.1255 18.6121 19.1255C18.4905 19.1255 17.7493 19.1914 17.7361 19.2441C17.6951 19.3994 19.3913 19.5093 19.5452 19.4961C19.699 19.4829 21.0056 19.3218 21.0144 19.2588C21.0232 19.1958 20.1223 19.1152 20.0007 19.1431V19.1416Z" fill="url(#paint37_linear_5409_5773)"/>
<path d="M25.2173 12.4109C23.9897 11.6198 23.0303 11.8117 23.0303 11.8117C25.7138 12.4109 25.3125 14.7663 25.3125 14.7663C25.3125 14.7663 25.9306 12.8708 25.2173 12.4109Z" fill="#F7D4AB"/>
<path d="M21.7411 11.9787C21.2416 12.2189 20.8827 12.8913 21.3163 12.7463C21.7499 12.5998 23.3539 11.9787 23.704 11.9699C24.2474 11.9582 25.0516 12.2482 25.2625 12.383C25.2625 12.383 24.2899 11.6125 23.6908 11.5495C23.0931 11.4865 22.0092 11.8498 21.7396 11.9787H21.7411Z" fill="url(#paint38_linear_5409_5773)"/>
<path d="M16.8999 11.9977C16.626 11.882 15.4409 11.5158 14.8462 11.6066C14.2515 11.6989 13.3154 12.528 13.3154 12.528C13.5205 12.3844 14.3584 12.0124 14.8535 12.027C15.2036 12.0373 16.834 12.5749 17.2734 12.6994C17.7143 12.8239 17.4096 12.2131 16.8984 11.9977H16.8999Z" fill="url(#paint39_linear_5409_5773)"/>
<path d="M15.2975 13.0364C14.795 13.0789 13.7272 13.2634 13.7404 14.22C13.7579 15.4299 15.0001 15.717 15.5553 15.7214C16.2613 15.7287 16.7506 15.5193 17.1681 15.3889C17.4771 15.2922 17.6427 15.2615 17.7994 15.2263C17.7569 14.2976 17.3761 13.0364 15.296 13.0364H15.2975Z" fill="url(#paint40_linear_5409_5773)"/>
<path d="M16.5308 13.7688C16.7402 13.9666 16.9863 14.3225 17.0024 14.6506C17.0215 15.0286 16.8794 15.2366 16.6333 15.4651C16.9482 15.3786 17.2515 15.2219 17.7056 15.156C17.7056 15.156 17.2661 14.2097 16.5293 13.7703L16.5308 13.7688Z" fill="url(#paint41_linear_5409_5773)"/>
<path d="M16.5908 13.9065C16.7944 14.0662 16.938 14.2917 16.9834 14.5466C17.3452 14.7649 17.5752 15.0271 17.7056 15.156C17.7056 15.156 17.2632 14.239 16.5908 13.9065Z" fill="#DDDDDD"/>
<path d="M15.6723 13.5769C15.1597 13.6238 14.5386 13.8889 13.7871 14.5188C13.7871 14.5188 14.2148 15.427 15.4292 15.5867C15.145 15.3962 14.9399 15.1501 14.9209 14.7576C14.8945 14.2126 15.2153 13.7336 15.6723 13.5769Z" fill="url(#paint42_linear_5409_5773)"/>
<path d="M16.9864 14.5189C16.2642 14.0238 15.4849 14.0194 14.8946 14.226C14.814 14.393 14.7745 14.5834 14.7862 14.7811C14.8082 15.162 15.0235 15.3993 15.3209 15.5839C15.7867 15.663 16.5484 15.5048 16.6334 15.4623C16.8897 15.2411 17.0289 15.0141 17.0025 14.6478C16.9981 14.598 16.9952 14.5644 16.9864 14.5175V14.5189Z" fill="url(#paint43_linear_5409_5773)"/>
<path d="M13.9839 14.5496L14.1274 14.8176C14.1274 14.8176 14.4072 14.5847 14.832 14.4045C14.9126 14.1511 15.0898 13.9416 15.3227 13.8098C14.7837 13.9109 14.2783 14.1702 13.9824 14.5496H13.9839Z" fill="#DDDDDD"/>
<path d="M16.5913 13.9066C16.499 13.8611 16.4023 13.826 16.3013 13.8069C15.9878 13.7454 15.6494 13.7498 15.3227 13.8113C15.0898 13.9432 14.8994 14.1497 14.8262 14.409C15.1396 14.2772 15.5381 14.1702 15.9585 14.2098C16.3804 14.2493 16.7246 14.3856 16.9912 14.5467C16.9516 14.2874 16.7964 14.0662 16.5913 13.9066Z" fill="url(#paint44_linear_5409_5773)"/>
<path d="M15.8617 13.8771C15.4765 13.9064 15.1879 14.2345 15.2157 14.611C15.2436 14.9874 15.5775 15.2687 15.9628 15.2394C16.3466 15.2101 16.6366 14.882 16.6088 14.5055C16.5824 14.129 16.247 13.8478 15.8632 13.8771H15.8617Z" fill="url(#paint45_radial_5409_5773)"/>
<path d="M16.056 14.2961C15.9623 14.2478 15.848 14.2888 15.7997 14.3884C15.7528 14.488 15.7894 14.6082 15.8832 14.6565C15.9769 14.7048 16.0926 14.6638 16.1395 14.5642C16.1864 14.4646 16.1498 14.3445 16.056 14.2961Z" fill="white"/>
<path d="M16.6954 14.5643C16.5665 14.4984 16.4083 14.5512 16.3439 14.6801C16.2794 14.809 16.3322 14.9672 16.4625 15.0331C16.5929 15.0975 16.7511 15.0463 16.8156 14.9159C16.88 14.787 16.8273 14.6288 16.6969 14.5643H16.6954Z" fill="white"/>
<path d="M14.5521 13.6196C13.9032 13.9492 13.3305 13.6636 13.3188 13.6577C13.3232 13.6855 13.2323 14.4253 13.767 14.6142C13.7685 14.626 13.7743 14.6523 13.7846 14.6919C13.5546 14.6758 13.4931 14.8032 13.4301 14.8691C13.4315 14.8735 13.6498 14.7519 14.1288 15.1035C14.4408 15.332 14.9389 15.5854 15.4559 15.603C14.7514 15.3262 14.4101 15.1592 14.0424 14.582C14.6151 14.0913 15.3036 13.9009 15.9804 13.939C16.9603 13.9932 17.7059 15.1562 17.7059 15.1562C17.3881 13.8936 16.4008 12.8652 14.5507 13.6196H14.5521Z" fill="url(#paint46_linear_5409_5773)"/>
<path d="M16.3901 13.1448C15.7119 12.9104 15.0352 13.0173 14.5195 13.199C14.5195 13.199 15.6138 12.991 16.3506 13.2752C17.0874 13.5608 17.3862 13.8743 17.3862 13.8743C17.3862 13.8743 17.0698 13.3792 16.3916 13.1448H16.3901Z" fill="url(#paint47_linear_5409_5773)"/>
<path d="M16.1152 13.8335C14.5186 13.6694 14.0439 14.582 14.0439 14.582C14.438 14.2685 15.1601 13.8584 16.0639 13.9463C16.9678 14.0327 17.706 15.1562 17.706 15.1562C17.706 15.1562 17.3047 13.958 16.1138 13.8349L16.1152 13.8335Z" fill="#391B13"/>
<path d="M19.4243 18.5618C19.6631 18.5295 20.6592 17.8704 20.6592 17.8704H18.1133C18.1133 17.8704 19.1855 18.594 19.4258 18.5618H19.4243Z" fill="url(#paint48_linear_5409_5773)"/>
<path d="M19.3889 16.7935C18.7136 16.8125 18.5232 16.9854 18.5716 17.1685C18.6917 17.6123 18.9788 17.6958 19.4007 17.6944C19.8445 17.6944 20.1917 17.5933 20.2605 17.1158C20.281 16.9751 20.0657 16.7745 19.3889 16.7935Z" fill="url(#paint49_linear_5409_5773)"/>
<path d="M19.8428 17.986C19.8428 17.986 21.0835 18.005 20.6821 17.5905C20.5474 17.4513 19.8428 17.986 19.8428 17.986Z" fill="url(#paint50_linear_5409_5773)"/>
<path d="M18.1173 17.6462C17.7028 18.0036 19.0109 17.9846 19.0109 17.9846C19.0109 17.9846 18.2638 17.5202 18.1173 17.6462Z" fill="url(#paint51_linear_5409_5773)"/>
<path d="M19.3992 17.8204C18.1424 17.8028 17.9988 17.1802 17.8274 17.5787C17.7571 17.7427 17.8904 17.7911 18.1116 17.8702C18.1116 17.8702 18.0398 17.6871 18.3211 17.7061C18.5247 17.7193 18.6888 18.1588 19.4139 18.1382C20.1888 18.1163 20.2957 17.7208 20.4949 17.7105C20.6765 17.7017 20.6575 17.8716 20.6575 17.8716C20.6575 17.8716 21.0252 17.6798 20.886 17.5069C20.6341 17.1934 20.5564 17.8365 19.3977 17.8204H19.3992Z" fill="#F0C499"/>
<path d="M23.4087 12.9646C21.3286 12.9646 20.9478 14.2258 20.9053 15.1545C21.062 15.1897 21.2275 15.2204 21.5366 15.3171C21.9541 15.4475 22.4433 15.657 23.1494 15.6496C23.7046 15.6452 24.9482 15.3567 24.9658 14.1482C24.979 13.1916 23.9111 13.0056 23.4087 12.9646Z" fill="url(#paint52_linear_5409_5773)"/>
<path d="M21.0005 15.0813C21.4546 15.1472 21.7578 15.3039 22.0727 15.3904C21.8267 15.1619 21.686 14.9538 21.7036 14.5759C21.7197 14.2493 21.9658 13.8918 22.1753 13.6941C21.4385 14.135 20.999 15.0798 20.999 15.0798L21.0005 15.0813Z" fill="url(#paint53_linear_5409_5773)"/>
<path d="M21.001 15.0813C21.1313 14.9524 21.3628 14.6902 21.7231 14.4719C21.7685 14.217 21.9106 13.9915 22.1157 13.8318C21.4419 14.1628 21.001 15.0813 21.001 15.0813Z" fill="#DDDDDD"/>
<path d="M23.7856 14.6843C23.7666 15.0769 23.5615 15.323 23.2773 15.5134C24.4917 15.3537 24.9194 14.4455 24.9194 14.4455C24.1694 13.8142 23.5469 13.5491 23.0342 13.5037C23.4912 13.6589 23.812 14.1394 23.7856 14.6843Z" fill="url(#paint54_linear_5409_5773)"/>
<path d="M21.7217 14.4457C21.713 14.4926 21.7086 14.5263 21.7056 14.5761C21.6778 14.9423 21.8184 15.1693 22.0748 15.3905C22.1612 15.433 22.9214 15.5897 23.3873 15.5121C23.6846 15.3261 23.8999 15.0888 23.9219 14.7094C23.9336 14.5102 23.8941 14.3212 23.8135 14.1542C23.2232 13.9477 22.4454 13.9521 21.7217 14.4472V14.4457Z" fill="url(#paint55_linear_5409_5773)"/>
<path d="M23.3843 13.7366C23.6172 13.8684 23.7944 14.0779 23.875 14.3313C24.2998 14.5115 24.5796 14.7444 24.5796 14.7444L24.7231 14.4763C24.4272 14.0969 23.9233 13.8376 23.3828 13.7366H23.3843Z" fill="#DDDDDD"/>
<path d="M23.3833 13.7366C23.0566 13.6751 22.7183 13.6707 22.4048 13.7322C22.3037 13.7513 22.207 13.7864 22.1147 13.8318C21.9111 13.9915 21.7559 14.2127 21.7148 14.472C21.9814 14.3108 22.3257 14.1746 22.7476 14.1351C23.168 14.0955 23.5664 14.201 23.8799 14.3343C23.8066 14.075 23.6162 13.8685 23.3833 13.7366Z" fill="url(#paint56_linear_5409_5773)"/>
<path d="M22.8443 13.8041C22.4591 13.7748 22.1251 14.056 22.0987 14.4325C22.0694 14.809 22.3595 15.1371 22.7447 15.1664C23.13 15.1957 23.4639 14.913 23.4918 14.538C23.5196 14.1615 23.2296 13.8334 22.8458 13.8041H22.8443Z" fill="url(#paint57_radial_5409_5773)"/>
<path d="M22.9646 14.2069C22.8723 14.1527 22.7537 14.1879 22.6965 14.2831C22.6409 14.3783 22.6687 14.4984 22.761 14.5512C22.8518 14.6039 22.9719 14.5702 23.0276 14.4765C23.0847 14.3827 23.0554 14.2626 22.9646 14.2084V14.2069Z" fill="white"/>
<path d="M23.592 14.4909C23.466 14.4162 23.3078 14.4572 23.2361 14.5832C23.1643 14.7092 23.2068 14.8717 23.3313 14.945C23.4558 15.0212 23.6155 14.9787 23.6872 14.8542C23.759 14.7282 23.7165 14.5671 23.592 14.4909Z" fill="white"/>
<path d="M25.3881 13.5826C25.3764 13.5884 24.8037 13.8755 24.1548 13.5445C22.3047 12.7886 21.3188 13.817 21.001 15.0811C21.001 15.0811 21.7466 13.9195 22.7265 13.8638C23.4033 13.8257 24.0918 14.0162 24.6645 14.5069C24.2968 15.084 23.9555 15.251 23.251 15.5279C23.768 15.5103 24.2661 15.2569 24.5781 15.0284C25.0571 14.6768 25.2754 14.7984 25.2768 14.794C25.2138 14.7281 25.1538 14.6006 24.9223 14.6168C24.9326 14.5772 24.9384 14.5508 24.9399 14.5391C25.4746 14.3516 25.3838 13.6104 25.3881 13.5826Z" fill="url(#paint58_linear_5409_5773)"/>
<path d="M22.3179 13.0729C21.6396 13.3072 21.3232 13.8023 21.3232 13.8023C21.3232 13.8023 21.6221 13.4889 22.3574 13.2032C23.0942 12.9176 24.1885 13.1271 24.1885 13.1271C23.6728 12.9439 22.9946 12.837 22.3179 13.0729Z" fill="url(#paint59_linear_5409_5773)"/>
<path d="M22.5913 13.7614C21.4004 13.883 20.999 15.0827 20.999 15.0827C20.999 15.0827 21.7373 13.9606 22.6411 13.8727C23.5449 13.7863 24.2685 14.195 24.6611 14.5084C24.6611 14.5084 24.1865 13.5973 22.5898 13.7599L22.5913 13.7614Z" fill="#391B13"/>
<path d="M25.208 14.7749C26.434 16.8315 25.2973 19.3188 24.0845 20.4321C22.7456 21.6611 22.5376 22.058 22.0674 22.54C22.0674 22.54 23.8764 20.8701 24.4609 20.4438C24.9282 20.1025 26.5102 18.3242 26.0971 15.9761C26.0971 15.9761 25.8994 15.1309 25.2094 14.7749H25.208Z" fill="url(#paint60_linear_5409_5773)"/>
<path d="M14.8474 20.5361C12.2649 18.5 13.1014 14.9551 13.1014 14.9551C11.6805 18.5439 13.9495 20.1816 14.4153 20.5273C15.3748 21.2377 16.6155 22.3408 17.0579 22.6953C16.8279 22.496 16.2698 21.6567 14.8474 20.5361Z" fill="#F0C499"/>
<path d="M17.3965 22.9634C17.3965 22.9634 19.251 25.2192 21.6679 22.9121C21.6679 22.9121 19.4927 24.6509 17.3965 22.9634Z" fill="url(#paint61_linear_5409_5773)"/>
<path d="M19.5599 21.8839C19.0589 21.8561 18.637 21.9836 18.618 22.1681C18.5975 22.3527 18.9856 22.5255 19.4866 22.5519C19.9861 22.5797 20.408 22.4523 20.4285 22.2677C20.449 22.0846 20.0594 21.9118 19.5599 21.8839Z" fill="url(#paint62_linear_5409_5773)"/>
<path d="M26.4242 12.8354C26.1869 12.8354 22.4603 12.938 21.87 13.0054C20.7553 13.1313 20.1327 13.603 20.0155 13.6279C19.8983 13.6528 18.8129 13.6587 18.6928 13.6352C18.5727 13.6118 17.9194 13.1475 16.7973 13.0332C16.204 12.9731 12.3881 12.9131 12.1508 12.9146C11.9135 12.9146 12.0102 13.4448 12.0131 13.5195C12.0219 13.6953 12.2534 13.71 12.3764 13.8769C12.4995 14.0439 13.0415 16.2895 13.5249 16.5737C14.0082 16.8593 16.6288 17.3603 17.5136 16.6836C18.3984 16.0083 18.4848 14.4966 18.8583 14.2783C19.2333 14.06 19.4267 14.0586 19.8134 14.2725C20.2001 14.4863 20.4169 15.9995 21.3397 16.666C22.2626 17.3325 24.8436 16.8125 25.3109 16.5224C25.7782 16.2324 26.1546 13.9692 26.2689 13.8008C26.3832 13.6323 26.6131 13.5767 26.6117 13.439C26.6117 13.3628 26.66 12.8354 26.4227 12.8369L26.4242 12.8354ZM17.2265 16.5415C16.2875 16.978 13.9262 16.644 13.6289 16.2383C13.333 15.8325 12.7675 14.063 13.2568 13.7012C13.746 13.3379 15.9828 13.3921 16.5556 13.4375C17.1283 13.4814 17.956 13.7305 18.12 13.9927C18.3442 14.3516 18.1654 16.105 17.225 16.5415H17.2265ZM25.1908 16.1855C24.9169 16.5942 22.5848 16.9472 21.621 16.5195C20.6571 16.0932 20.3436 14.3384 20.5473 13.978C20.6967 13.7143 21.5053 13.4565 22.0751 13.4053C22.6449 13.354 24.8788 13.1152 25.3871 13.4727C25.8968 13.8301 25.4632 15.7754 25.1908 16.1855Z" fill="url(#paint63_linear_5409_5773)"/>
<path d="M24.0791 25.2161L24.1934 30.7854L24.0791 32.0495C24.0791 32.0495 25.0049 31.4504 25.144 31.3552L24.7778 25.5647L24.0806 25.2161H24.0791Z" fill="url(#paint64_linear_5409_5773)"/>
<path d="M19.6864 36.8529C17.5609 34.1459 16.4477 28.0332 16.4477 28.0332C15.5234 27.6113 14.684 25.7598 14.684 25.7598C9.19822 27.1001 6.20117 29.1509 6.20117 29.1509C6.78857 29.4878 8.72068 31.7612 9.39304 32.6884C9.60251 32.977 9.7695 33.5981 9.9072 34.4125C12.664 35.9711 15.8398 36.8603 19.2221 36.8603C19.3773 36.8603 19.5326 36.8573 19.6864 36.8544V36.8529Z" fill="#F0F0F4"/>
<path d="M28.5805 26.7983C27.2255 26.3457 24.9287 25.6763 24.9287 25.6763C24.5932 26.0967 23.3335 26.602 23.3335 26.602C23.3335 29.2065 20.8989 35.1962 20.2119 36.8339C23.7978 36.6493 27.1245 35.4643 29.9223 33.5497C31.141 31.6499 33.6122 28.9677 33.6122 28.9677C33.5184 28.8374 30.3852 27.4033 28.5805 26.7998V26.7983Z" fill="#F0F0F4"/>
<path d="M23.1035 29.9492L20.1123 36.8369C23.2573 36.6904 26.2045 35.7763 28.7753 34.2749C29.2236 33.0678 29.4609 32.0674 29.7846 30.0093L23.1035 29.9492Z" fill="url(#paint65_linear_5409_5773)"/>
<path d="M19.5907 36.8542L16.541 30.0706L9.19629 30.554C9.19629 30.554 9.98583 32.738 10.9424 34.9572C13.4472 36.176 16.2553 36.8601 19.2216 36.8601C19.3447 36.8601 19.4677 36.8571 19.5907 36.8557V36.8542Z" fill="url(#paint66_linear_5409_5773)"/>
<path d="M23.7656 28.0188C23.7656 28.0188 25.4707 26.4499 26.1137 26.1482L24.227 24.9412L22.2026 27.6599C22.2026 27.6599 21.9184 29.3474 21.7983 30.0725C21.6782 30.7961 20.915 34.237 19.7725 36.4709L19.8574 36.8488C20.3877 36.8312 20.9121 36.7917 21.4292 36.7316C21.9082 35.7648 22.4238 34.6559 22.7212 33.8151C23.3833 31.9431 23.7641 28.2619 23.7641 28.0202L23.7656 28.0188Z" fill="url(#paint67_linear_5409_5773)"/>
<path d="M14.7725 27.708L13.9873 28.2427L15.001 36.3857C15.1841 36.4267 15.3672 36.4662 15.5517 36.5029L14.771 30.8852V27.7095L14.7725 27.708Z" fill="url(#paint68_linear_5409_5773)"/>
<path d="M24.1333 26.9771L24.189 30.7431L23.8008 36.2992C24.0425 36.2392 24.2827 36.1747 24.52 36.1059L25.3374 27.4839L24.1318 26.9785L24.1333 26.9771Z" fill="url(#paint69_linear_5409_5773)"/>
<path d="M19.7114 36.5908L19.7393 36.8516C19.8872 36.8472 20.0352 36.8413 20.1831 36.834C20.0557 36.459 19.9355 36.1338 19.9355 36.1338L19.71 36.5908H19.7114Z" fill="url(#paint70_linear_5409_5773)"/>
<path d="M17.5644 29.0442C17.5044 28.5608 16.4805 26.7502 16.4805 26.7502L15.4565 25.845L14.1924 26.9319C14.4326 27.2336 15.4565 28.0788 15.4565 28.0788C15.4565 28.0788 16.6006 32.8483 17.7446 35.6242C17.9072 36.0197 18.039 36.4225 18.1518 36.8283C18.5063 36.8473 18.8623 36.859 19.2212 36.859C19.4614 36.859 19.7002 36.8532 19.9375 36.8444C19.9096 36.7785 19.8818 36.7126 19.851 36.651C19.1289 35.1423 17.6245 29.5276 17.563 29.0456L17.5644 29.0442Z" fill="url(#paint71_linear_5409_5773)"/>
<path d="M9.89941 33.853C9.90674 33.916 9.91992 34.1167 9.94043 34.4287C9.96973 34.4448 9.99756 34.4609 10.0269 34.477C9.94336 34.0859 9.89941 33.8516 9.89941 33.8516V33.853Z" fill="url(#paint72_linear_5409_5773)"/>
<path d="M29.0942 34.0845C29.103 34.0786 29.1118 34.0742 29.1206 34.0684C29.1206 33.9819 29.1206 33.9351 29.1206 33.9351C29.1118 33.9863 29.1016 34.0347 29.0928 34.0845H29.0942Z" fill="url(#paint73_linear_5409_5773)"/>
<path d="M15.4565 26.1318C15.0976 25.9575 13.9316 25.1211 13.9316 25.1211L11.9453 26.9726L12.2661 30.5146L15.2968 27.5161C15.2968 27.5161 16.5756 27.5102 17.1821 28.083C17.1821 28.083 16.5405 26.6606 15.4565 26.1318Z" fill="url(#paint74_linear_5409_5773)"/>
<path d="M22.2012 27.667C22.2012 27.667 23.4434 27.1733 23.7641 27.2129L26.7129 30.3315L27.0351 26.6899L24.1055 25.3628C24.1055 25.3628 22.585 26.7529 22.2012 27.6684V27.667Z" fill="url(#paint75_linear_5409_5773)"/>
<path d="M12.4843 26.343C6.97509 27.6892 6.27051 28.0041 6.27051 28.0041C6.86084 28.3425 8.57469 31.924 9.24998 32.8542C9.43455 33.1091 9.58835 33.6247 9.71579 34.3029C10.9975 35.047 12.373 35.6447 13.8188 36.0739C13.3911 33.3244 12.9941 30.5866 12.83 27.7947C12.5839 26.9304 12.4843 26.343 12.4843 26.343Z" fill="url(#paint76_linear_5409_5773)"/>
<path d="M33.5307 27.9468C33.4355 27.8164 31.3906 27.4282 29.5727 26.9316C28.1899 26.5537 26.9375 26.2505 26.9375 26.2505C26.8042 26.4189 26.602 27.6435 26.0396 29.1128C26.1011 30.8574 26.2695 32.6621 26.1553 34.373C26.1055 34.7831 26.0571 35.1933 26.0088 35.602C27.3769 35.0761 28.6689 34.3979 29.8657 33.5849C31.0786 31.3745 33.5292 27.9453 33.5292 27.9453L33.5307 27.9468Z" fill="url(#paint77_linear_5409_5773)"/>
<path d="M25.9561 25.8535C27.9746 27.2026 33.5307 27.9468 33.5307 27.9468C33.4912 27.7886 25.9561 25.8535 25.9561 25.8535Z" fill="url(#paint78_linear_5409_5773)"/>
<path d="M13.0083 26.0776C8.78367 26.731 6.27734 28.0039 6.27734 28.0039C9.3491 27.415 13.0083 26.0776 13.0083 26.0776Z" fill="url(#paint79_linear_5409_5773)"/>
<path d="M6.27245 28.0054C5.76562 28.4537 5.47851 29.5054 5.32031 30.7989C6.64159 32.2124 8.17234 33.4253 9.85983 34.3848C9.82028 33.8867 9.79098 33.4883 9.77926 33.2583C9.7192 32.0454 7.37987 27.3858 6.27099 28.0054H6.27245Z" fill="url(#paint80_linear_5409_5773)"/>
<path d="M5.80908 29.7368C5.68164 30.0839 5.58203 30.5131 5.50293 30.9907C5.97461 31.4828 6.47265 31.9487 6.99413 32.3881C6.71728 30.0151 6.30419 28.3862 5.81054 29.7368H5.80908Z" fill="url(#paint81_linear_5409_5773)"/>
<path d="M9.31738 34.0653C9.50928 34.1825 9.70263 34.2952 9.89746 34.4066C9.8125 33.4969 9.729 32.7747 9.65869 32.4393C9.56787 32.0145 9.44189 32.8363 9.31738 34.0653Z" fill="url(#paint82_linear_5409_5773)"/>
<path d="M27.6723 29.7702L28.9145 29.1477C28.4311 27.1921 27.4189 26.4714 27.4189 26.4714L26.8784 26.2927C26.8784 26.2927 26.4419 30.9187 26.0068 35.6047C26.9927 35.2267 27.9389 34.7682 28.8398 34.2365C29.0874 32.2326 29.1914 30.3591 29.1914 30.3591L27.6723 29.7702Z" fill="url(#paint83_linear_5409_5773)"/>
<path d="M11.4975 26.624C11.4975 26.624 10.604 27.0312 9.96094 29.4834L11.2339 30.04L9.74707 30.708C9.74707 30.708 9.95361 32.6196 10.3125 34.6337C11.2383 35.1274 12.208 35.5463 13.2158 35.8832C12.5317 31.1943 11.8447 26.5317 11.8447 26.5317L11.4961 26.624H11.4975Z" fill="url(#paint84_linear_5409_5773)"/>
<path d="M27.4697 29.6252L28.4819 28.9646C28.4819 28.9646 28.0351 26.8757 27.2353 26.3967C26.8428 26.1609 26.1323 25.446 25.4761 24.866C25.2051 25.2834 24.811 25.616 24.3481 25.8093C24.4609 27.1833 24.5752 30.737 24.5752 30.737C24.5752 30.737 24.3906 33.1862 24.1592 36.2052C25.665 35.7995 27.0976 35.2121 28.4321 34.4679C28.5566 33.2873 28.6811 31.8591 28.8056 30.1086L27.4697 29.6237V29.6252Z" fill="url(#paint85_linear_5409_5773)"/>
<path d="M14.3291 25.8608C13.8486 25.7129 13.4282 25.4199 13.1206 25.0317C12.5024 25.6396 11.8447 26.3618 11.4756 26.6108C10.7021 27.1323 10.3667 29.2417 10.3667 29.2417L11.4126 29.8481L10.1045 30.4033C10.3271 32.2021 10.5352 33.6567 10.7285 34.849C12.0967 35.536 13.5571 36.0619 15.0864 36.4032C14.685 33.3271 14.3613 30.8046 14.3613 30.8046C14.3613 30.8046 14.2881 27.229 14.3291 25.8594V25.8608Z" fill="url(#paint86_linear_5409_5773)"/>
<path d="M34.1074 29.6591C33.8393 28.3305 33.5405 27.9365 33.5405 27.9365C32.1767 27.6201 30.9975 31.5619 30.0293 32.4701C29.688 32.7909 29.4141 33.3842 29.2031 34.017C31.0737 32.8569 32.7319 31.3788 34.1059 29.6606L34.1074 29.6591Z" fill="url(#paint87_linear_5409_5773)"/>
<path d="M29.002 33.8633C29.002 33.8633 28.9858 33.9761 28.958 34.1651C29.103 34.0786 29.2451 33.9908 29.3872 33.8999C29.3037 32.5904 29.1807 32.1158 29.002 33.8633Z" fill="url(#paint88_linear_5409_5773)"/>
<path d="M33.7749 29.4586C33.4761 28.5972 33.2124 29.4 32.9971 30.9337C33.3149 30.5997 33.6211 30.254 33.9155 29.898C33.8643 29.7208 33.8174 29.5758 33.7764 29.4586H33.7749Z" fill="url(#paint89_linear_5409_5773)"/>
<path d="M11.9424 30.8281C11.9424 30.8281 14.207 28.2119 14.3198 28.0435L14.3535 27.0898L11.8867 29.5625L11.9424 30.8266V30.8281Z" fill="url(#paint90_linear_5409_5773)"/>
<path d="M24.4487 27.4956C24.5688 27.6699 26.9887 30.3784 26.9887 30.3784L27.0488 29.0659L24.3945 26.5024L24.4487 27.4941V27.4956Z" fill="url(#paint91_linear_5409_5773)"/>
<path d="M15.7368 25.7731C14.414 24.7989 14.2236 23.4308 14.2236 23.4308C14.2236 23.4308 13.6831 23.3751 12.2783 25.6295C11.9897 26.0939 11.7246 30.5147 11.7246 30.5147C13.2099 28.5431 14.3935 27.4561 14.3935 27.4561C14.3935 27.4561 15.3369 26.5289 15.5771 26.5304C15.8174 26.5304 17.184 28.086 17.184 28.086C16.5556 26.7896 16.1499 26.0792 15.7368 25.7745V25.7731Z" fill="url(#paint92_linear_5409_5773)"/>
<path d="M24.6474 23.4307C24.6474 23.4307 24.5273 24.8398 23.4829 25.7246C23.0903 26.0571 22.2803 27.3051 22.2012 27.667C22.2012 27.667 23.4829 26.3677 23.7246 26.3677C23.9663 26.3677 24.6474 27.0913 24.6474 27.0913C24.6474 27.0913 26.6132 29.3852 27.1757 30.1088C27.1757 30.1088 26.6557 26.0791 26.3466 25.6264C25.2627 24.0371 24.6474 23.4277 24.6474 23.4277V23.4307Z" fill="url(#paint93_linear_5409_5773)"/>
<defs>
<linearGradient id="paint0_linear_5409_5773" x1="23.1842" y1="22.042" x2="23.6368" y2="13.8199" gradientUnits="userSpaceOnUse">
<stop offset="0.23" stop-color="#492219"/>
<stop offset="1" stop-color="#652F23"/>
</linearGradient>
<linearGradient id="paint1_linear_5409_5773" x1="24.3862" y1="25.0143" x2="22.914" y2="17.2888" gradientUnits="userSpaceOnUse">
<stop offset="0.23" stop-color="#492219"/>
<stop offset="1" stop-color="#652F23"/>
</linearGradient>
<linearGradient id="paint2_linear_5409_5773" x1="16.9878" y1="40.1065" x2="24.9023" y2="18.9074" gradientUnits="userSpaceOnUse">
<stop stop-color="#673024"/>
<stop offset="0.38" stop-color="#6B3227"/>
<stop offset="0.8" stop-color="#783B30"/>
<stop offset="1" stop-color="#824137"/>
</linearGradient>
<linearGradient id="paint3_linear_5409_5773" x1="20.8042" y1="25.9457" x2="25.8638" y2="19.7744" gradientUnits="userSpaceOnUse">
<stop stop-color="#673024"/>
<stop offset="0.38" stop-color="#6B3227"/>
<stop offset="0.8" stop-color="#783B30"/>
<stop offset="1" stop-color="#824137"/>
</linearGradient>
<linearGradient id="paint4_linear_5409_5773" x1="20.1089" y1="26.1655" x2="25.3428" y2="19.7832" gradientUnits="userSpaceOnUse">
<stop stop-color="#673024"/>
<stop offset="0.38" stop-color="#6B3227"/>
<stop offset="0.8" stop-color="#783B30"/>
<stop offset="1" stop-color="#824137"/>
</linearGradient>
<linearGradient id="paint5_linear_5409_5773" x1="13.7695" y1="24.828" x2="25.4208" y2="24.828" gradientUnits="userSpaceOnUse">
<stop stop-color="#F0F0F4"/>
<stop offset="1" stop-color="#E0E0E4"/>
</linearGradient>
<linearGradient id="paint6_linear_5409_5773" x1="19.9306" y1="30.9995" x2="19.0869" y2="14.6388" gradientUnits="userSpaceOnUse">
<stop stop-color="#F0F0F4"/>
<stop offset="0.64" stop-color="#F8F8F9"/>
<stop offset="1" stop-color="white"/>
</linearGradient>
<linearGradient id="paint7_linear_5409_5773" x1="16.811" y1="23.1013" x2="22.392" y2="29.176" gradientUnits="userSpaceOnUse">
<stop stop-color="#F0C499"/>
<stop offset="0.52" stop-color="#F1C69B"/>
<stop offset="0.85" stop-color="#F4CEA4"/>
<stop offset="1" stop-color="#F7D4AB"/>
</linearGradient>
<linearGradient id="paint8_linear_5409_5773" x1="23.2353" y1="27.8195" x2="18.8379" y2="28.4684" gradientUnits="userSpaceOnUse">
<stop stop-color="#F0C499"/>
<stop offset="0.52" stop-color="#F1C69B"/>
<stop offset="0.85" stop-color="#F4CEA4"/>
<stop offset="1" stop-color="#F7D4AB"/>
</linearGradient>
<linearGradient id="paint9_linear_5409_5773" x1="19.8442" y1="27.5046" x2="26.8388" y2="26.4133" gradientUnits="userSpaceOnUse">
<stop stop-color="#F0C499"/>
<stop offset="0.52" stop-color="#F1C69B"/>
<stop offset="0.85" stop-color="#F4CEA4"/>
<stop offset="1" stop-color="#F7D4AB"/>
</linearGradient>
<linearGradient id="paint10_linear_5409_5773" x1="19.4521" y1="27.8532" x2="13.3086" y2="26.2404" gradientUnits="userSpaceOnUse">
<stop stop-color="#F0C499"/>
<stop offset="0.52" stop-color="#F1C69B"/>
<stop offset="0.85" stop-color="#F4CEA4"/>
<stop offset="1" stop-color="#F7D4AB"/>
</linearGradient>
<linearGradient id="paint11_linear_5409_5773" x1="18.9902" y1="21.2056" x2="19.8047" y2="24.6582" gradientUnits="userSpaceOnUse">
<stop stop-color="#DBA379"/>
<stop offset="0.49" stop-color="#E3B086"/>
<stop offset="1" stop-color="#F0C499"/>
</linearGradient>
<linearGradient id="paint12_linear_5409_5773" x1="22.3491" y1="4.27373" x2="24.2871" y2="32.6344" gradientUnits="userSpaceOnUse">
<stop stop-color="#6B3329"/>
<stop offset="0.42" stop-color="#5C2B22"/>
<stop offset="1" stop-color="#421F16"/>
</linearGradient>
<linearGradient id="paint13_linear_5409_5773" x1="10.2095" y1="3.89117" x2="17.475" y2="18.809" gradientUnits="userSpaceOnUse">
<stop stop-color="#6B3329"/>
<stop offset="0.42" stop-color="#5C2B22"/>
<stop offset="1" stop-color="#421F16"/>
</linearGradient>
<linearGradient id="paint14_linear_5409_5773" x1="13.9575" y1="12.8355" x2="18.4355" y2="17.2139" gradientUnits="userSpaceOnUse">
<stop stop-color="#F0C499"/>
<stop offset="0.15" stop-color="#F2C99F"/>
<stop offset="0.48" stop-color="#F5D1A8"/>
<stop offset="1" stop-color="#F7D4AB"/>
</linearGradient>
<linearGradient id="paint15_linear_5409_5773" x1="19.627" y1="14.482" x2="25.2475" y2="14.482" gradientUnits="userSpaceOnUse">
<stop stop-color="#F7D4AB"/>
<stop offset="0.52" stop-color="#F5D1A8"/>
<stop offset="0.85" stop-color="#F2C99F"/>
<stop offset="1" stop-color="#F0C499"/>
</linearGradient>
<radialGradient id="paint16_radial_5409_5773" cx="0" cy="0" r="1" gradientUnits="userSpaceOnUse" gradientTransform="translate(23.928 17.511) scale(2.48115 2.50434)">
<stop stop-color="#F9B38E"/>
<stop offset="0.61" stop-color="#F7C59E"/>
<stop offset="1" stop-color="#F7D4AB"/>
</radialGradient>
<linearGradient id="paint17_linear_5409_5773" x1="24.0172" y1="16.1988" x2="25.3268" y2="16.1988" gradientUnits="userSpaceOnUse">
<stop stop-color="#FFD9B3"/>
<stop offset="1" stop-color="#F7D4AB"/>
</linearGradient>
<linearGradient id="paint18_linear_5409_5773" x1="18.0117" y1="2.35307" x2="8.02598" y2="32.9417" gradientUnits="userSpaceOnUse">
<stop stop-color="#6B3329"/>
<stop offset="0.42" stop-color="#5C2B22"/>
<stop offset="1" stop-color="#421F16"/>
</linearGradient>
<linearGradient id="paint19_linear_5409_5773" x1="20.3823" y1="3.01237" x2="28.5151" y2="18.4576" gradientUnits="userSpaceOnUse">
<stop stop-color="#6B3329"/>
<stop offset="0.63" stop-color="#52271D"/>
<stop offset="1" stop-color="#421F16"/>
</linearGradient>
<radialGradient id="paint20_radial_5409_5773" cx="0" cy="0" r="1" gradientUnits="userSpaceOnUse" gradientTransform="translate(14.9864 17.7245) scale(2.33225 2.35404)">
<stop stop-color="#F9B38E"/>
<stop offset="0.61" stop-color="#F7C59E"/>
<stop offset="1" stop-color="#F7D4AB"/>
</radialGradient>
<linearGradient id="paint21_linear_5409_5773" x1="13.3056" y1="16.5005" x2="14.6225" y2="16.5005" gradientUnits="userSpaceOnUse">
<stop stop-color="#FFD9B3"/>
<stop offset="1" stop-color="#F7D4AB"/>
</linearGradient>
<linearGradient id="paint22_linear_5409_5773" x1="20.672" y1="6.20146" x2="-4.82632" y2="25.2164" gradientUnits="userSpaceOnUse">
<stop stop-color="#6B3329"/>
<stop offset="0.04" stop-color="#683127"/>
<stop offset="0.37" stop-color="#52271D"/>
<stop offset="0.69" stop-color="#462117"/>
<stop offset="1" stop-color="#421F16"/>
</linearGradient>
<linearGradient id="paint23_linear_5409_5773" x1="10.6319" y1="8.65917" x2="20.5107" y2="8.65917" gradientUnits="userSpaceOnUse">
<stop stop-color="#673024"/>
<stop offset="0.74" stop-color="#7A3C31"/>
<stop offset="1" stop-color="#824137"/>
</linearGradient>
<linearGradient id="paint24_linear_5409_5773" x1="12.4422" y1="9.94092" x2="12.1683" y2="19.414" gradientUnits="userSpaceOnUse">
<stop stop-color="#673024"/>
<stop offset="0.41" stop-color="#6A3126"/>
<stop offset="0.74" stop-color="#74382D"/>
<stop offset="1" stop-color="#824137"/>
</linearGradient>
<linearGradient id="paint25_linear_5409_5773" x1="27.2392" y1="34.0054" x2="27.4062" y2="39.8427" gradientUnits="userSpaceOnUse">
<stop stop-color="#DBA379"/>
<stop offset="0.49" stop-color="#E3B086"/>
<stop offset="1" stop-color="#F0C499"/>
</linearGradient>
<linearGradient id="paint26_linear_5409_5773" x1="11.9641" y1="14.9713" x2="12.1341" y2="20.8907" gradientUnits="userSpaceOnUse">
<stop stop-color="#DBA379"/>
<stop offset="0.49" stop-color="#E3B086"/>
<stop offset="1" stop-color="#F0C499"/>
</linearGradient>
<linearGradient id="paint27_linear_5409_5773" x1="25.7861" y1="9.22903" x2="26.0762" y2="18.2685" gradientUnits="userSpaceOnUse">
<stop stop-color="#6B3329"/>
<stop offset="0.28" stop-color="#5A2B21"/>
<stop offset="0.7" stop-color="#482219"/>
<stop offset="1" stop-color="#421F16"/>
</linearGradient>
<linearGradient id="paint28_linear_5409_5773" x1="24.5713" y1="13.2662" x2="23.2558" y2="5.29897" gradientUnits="userSpaceOnUse">
<stop stop-color="#673024"/>
<stop offset="0.74" stop-color="#7A3C31"/>
<stop offset="1" stop-color="#824137"/>
</linearGradient>
<linearGradient id="paint29_linear_5409_5773" x1="12.5449" y1="15.7827" x2="12.9873" y2="10.7744" gradientUnits="userSpaceOnUse">
<stop stop-color="#421F16"/>
<stop offset="0.3" stop-color="#482219"/>
<stop offset="0.72" stop-color="#5A2B21"/>
<stop offset="1" stop-color="#6B3329"/>
</linearGradient>
<linearGradient id="paint30_linear_5409_5773" x1="18.8022" y1="8.8761" x2="18.0141" y2="2.466" gradientUnits="userSpaceOnUse">
<stop stop-color="#673024"/>
<stop offset="0.38" stop-color="#6B3227"/>
<stop offset="0.8" stop-color="#783B30"/>
<stop offset="1" stop-color="#824137"/>
</linearGradient>
<linearGradient id="paint31_linear_5409_5773" x1="15.6774" y1="19.2501" x2="16.5797" y2="19.2501" gradientUnits="userSpaceOnUse">
<stop stop-color="#F7D4AB"/>
<stop offset="0.52" stop-color="#F5D1A8"/>
<stop offset="0.85" stop-color="#F2C99F"/>
<stop offset="1" stop-color="#F0C499"/>
</linearGradient>
<linearGradient id="paint32_linear_5409_5773" x1="21.5024" y1="19.2209" x2="22.6977" y2="19.2209" gradientUnits="userSpaceOnUse">
<stop stop-color="#F7D4AB"/>
<stop offset="0.52" stop-color="#F5D1A8"/>
<stop offset="0.85" stop-color="#F2C99F"/>
<stop offset="1" stop-color="#F0C499"/>
</linearGradient>
<linearGradient id="paint33_linear_5409_5773" x1="17.4642" y1="20.0515" x2="21.223" y2="20.0515" gradientUnits="userSpaceOnUse">
<stop stop-color="#E8D8D7"/>
<stop offset="0.14" stop-color="#EFE4E4"/>
<stop offset="0.39" stop-color="#FAF8F7"/>
<stop offset="0.57" stop-color="white"/>
<stop offset="1" stop-color="#E8D2D1"/>
</linearGradient>
<linearGradient id="paint34_linear_5409_5773" x1="16.2485" y1="19.6179" x2="22.1694" y2="19.6179" gradientUnits="userSpaceOnUse">
<stop stop-color="#E8D8D7"/>
<stop offset="0.04" stop-color="#EBDDDC"/>
<stop offset="0.21" stop-color="#F6F0EF"/>
<stop offset="0.38" stop-color="#FCFBFB"/>
<stop offset="0.57" stop-color="white"/>
<stop offset="0.69" stop-color="#FBF7F7"/>
<stop offset="0.87" stop-color="#F1E3E3"/>
<stop offset="1" stop-color="#E8D2D1"/>
</linearGradient>
<linearGradient id="paint35_linear_5409_5773" x1="17.3267" y1="20.2915" x2="21.6552" y2="20.2915" gradientUnits="userSpaceOnUse">
<stop stop-color="#F96E7E"/>
<stop offset="0.03" stop-color="#F9707F"/>
<stop offset="0.25" stop-color="#FD7985"/>
<stop offset="0.53" stop-color="#FF7D88"/>
<stop offset="0.76" stop-color="#FD7985"/>
<stop offset="1" stop-color="#F86D7D"/>
</linearGradient>
<linearGradient id="paint36_linear_5409_5773" x1="17.0952" y1="19.5212" x2="21.6787" y2="19.5212" gradientUnits="userSpaceOnUse">
<stop stop-color="#E8D8D7"/>
<stop offset="0.05" stop-color="#EADCDB"/>
<stop offset="0.31" stop-color="#F6EFEE"/>
<stop offset="0.48" stop-color="#FBF6F6"/>
<stop offset="1" stop-color="#E8D2D1"/>
</linearGradient>
<linearGradient id="paint37_linear_5409_5773" x1="17.7346" y1="19.3101" x2="21.0144" y2="19.3101" gradientUnits="userSpaceOnUse">
<stop stop-color="#F96E7E"/>
<stop offset="0.03" stop-color="#F9707F"/>
<stop offset="0.25" stop-color="#FD7985"/>
<stop offset="0.53" stop-color="#FF7D88"/>
<stop offset="0.76" stop-color="#FD7985"/>
<stop offset="1" stop-color="#F86D7D"/>
</linearGradient>
<linearGradient id="paint38_linear_5409_5773" x1="21.1229" y1="12.1545" x2="25.264" y2="12.1545" gradientUnits="userSpaceOnUse">
<stop stop-color="#673024"/>
<stop offset="0.34" stop-color="#52261C"/>
<stop offset="0.68" stop-color="#462017"/>
<stop offset="1" stop-color="#421F16"/>
</linearGradient>
<linearGradient id="paint39_linear_5409_5773" x1="13.3154" y1="12.1545" x2="17.4858" y2="12.1545" gradientUnits="userSpaceOnUse">
<stop stop-color="#421F16"/>
<stop offset="0.32" stop-color="#462017"/>
<stop offset="0.66" stop-color="#52261C"/>
<stop offset="1" stop-color="#673024"/>
</linearGradient>
<linearGradient id="paint40_linear_5409_5773" x1="17.3438" y1="13.7541" x2="13.9513" y2="15.071" gradientUnits="userSpaceOnUse">
<stop stop-color="#F0C499"/>
<stop offset="0.51" stop-color="#E3B086"/>
<stop offset="1" stop-color="#DBA379"/>
</linearGradient>
<linearGradient id="paint41_linear_5409_5773" x1="16.5044" y1="14.6169" x2="17.6807" y2="14.6169" gradientUnits="userSpaceOnUse">
<stop stop-color="white"/>
<stop offset="0.47" stop-color="#FCFCFC"/>
<stop offset="0.77" stop-color="#F5F3F3"/>
<stop offset="1" stop-color="#ECE7E7"/>
</linearGradient>
<linearGradient id="paint42_linear_5409_5773" x1="14.3555" y1="14.5818" x2="15.334" y2="14.5818" gradientUnits="userSpaceOnUse">
<stop stop-color="white"/>
<stop offset="0.47" stop-color="#FCFCFC"/>
<stop offset="0.77" stop-color="#F5F3F3"/>
<stop offset="1" stop-color="#ECE7E7"/>
</linearGradient>
<linearGradient id="paint43_linear_5409_5773" x1="17.6426" y1="16.1112" x2="14.8184" y2="14.1059" gradientUnits="userSpaceOnUse">
<stop stop-color="#B89C8C"/>
<stop offset="1" stop-color="#715241"/>
</linearGradient>
<linearGradient id="paint44_linear_5409_5773" x1="19.7568" y1="16.3206" x2="16.8301" y2="14.7562" gradientUnits="userSpaceOnUse">
<stop stop-color="#B89C8C"/>
<stop offset="1" stop-color="#715241"/>
</linearGradient>
<radialGradient id="paint45_radial_5409_5773" cx="0" cy="0" r="1" gradientUnits="userSpaceOnUse" gradientTransform="translate(15.7591 14.6381) scale(0.805628 0.813158)">
<stop stop-color="#2A3A3B"/>
<stop offset="1" stop-color="#1C2727"/>
</radialGradient>
<linearGradient id="paint46_linear_5409_5773" x1="13.2909" y1="14.4824" x2="17.6825" y2="14.4824" gradientUnits="userSpaceOnUse">
<stop stop-color="#391B13"/>
<stop offset="0.34" stop-color="#3D1C14"/>
<stop offset="0.71" stop-color="#492219"/>
<stop offset="1" stop-color="#5A2A1F"/>
</linearGradient>
<linearGradient id="paint47_linear_5409_5773" x1="15.6606" y1="13.1243" x2="17.6631" y2="15.9719" gradientUnits="userSpaceOnUse">
<stop stop-color="#DBA379"/>
<stop offset="0.49" stop-color="#E3B086"/>
<stop offset="1" stop-color="#F0C499"/>
</linearGradient>
<linearGradient id="paint48_linear_5409_5773" x1="19.395" y1="18.8679" x2="19.3862" y2="17.8411" gradientUnits="userSpaceOnUse">
<stop stop-color="#F7D4AB"/>
<stop offset="0.52" stop-color="#F5D1A8"/>
<stop offset="0.85" stop-color="#F2C99F"/>
<stop offset="1" stop-color="#F0C499"/>
</linearGradient>
<linearGradient id="paint49_linear_5409_5773" x1="19.6951" y1="17.8423" x2="18.8294" y2="15.6099" gradientUnits="userSpaceOnUse">
<stop stop-color="#FFD9B3"/>
<stop offset="1" stop-color="#F7D4AB"/>
</linearGradient>
<linearGradient id="paint50_linear_5409_5773" x1="20.7158" y1="17.6593" x2="19.8662" y2="18.0798" gradientUnits="userSpaceOnUse">
<stop stop-color="#DBA379"/>
<stop offset="0.49" stop-color="#E3B086"/>
<stop offset="1" stop-color="#F0C499"/>
</linearGradient>
<linearGradient id="paint51_linear_5409_5773" x1="18.0924" y1="17.7048" x2="19.0006" y2="18.0754" gradientUnits="userSpaceOnUse">
<stop stop-color="#DBA379"/>
<stop offset="0.49" stop-color="#E3B086"/>
<stop offset="1" stop-color="#F0C499"/>
</linearGradient>
<linearGradient id="paint52_linear_5409_5773" x1="24.7915" y1="13.6589" x2="20.895" y2="15.1736" gradientUnits="userSpaceOnUse">
<stop stop-color="#DBA379"/>
<stop offset="0.49" stop-color="#E3B086"/>
<stop offset="1" stop-color="#F0C499"/>
</linearGradient>
<linearGradient id="paint53_linear_5409_5773" x1="20.9741" y1="14.5437" x2="22.1504" y2="14.5437" gradientUnits="userSpaceOnUse">
<stop stop-color="white"/>
<stop offset="0.47" stop-color="#FCFCFC"/>
<stop offset="0.77" stop-color="#F5F3F3"/>
<stop offset="1" stop-color="#ECE7E7"/>
</linearGradient>
<linearGradient id="paint54_linear_5409_5773" x1="23.6025" y1="14.5085" x2="24.581" y2="14.5085" gradientUnits="userSpaceOnUse">
<stop stop-color="white"/>
<stop offset="0.47" stop-color="#FCFCFC"/>
<stop offset="0.77" stop-color="#F5F3F3"/>
<stop offset="1" stop-color="#ECE7E7"/>
</linearGradient>
<linearGradient id="paint55_linear_5409_5773" x1="24.1988" y1="15.5575" x2="21.4449" y2="13.8363" gradientUnits="userSpaceOnUse">
<stop stop-color="#B89C8C"/>
<stop offset="1" stop-color="#715241"/>
</linearGradient>
<linearGradient id="paint56_linear_5409_5773" x1="26.4712" y1="14.5672" x2="22.9043" y2="14.1439" gradientUnits="userSpaceOnUse">
<stop stop-color="#B89C8C"/>
<stop offset="1" stop-color="#715241"/>
</linearGradient>
<radialGradient id="paint57_radial_5409_5773" cx="0" cy="0" r="1" gradientUnits="userSpaceOnUse" gradientTransform="translate(22.6632 14.5656) scale(0.805629 0.813158)">
<stop stop-color="#2A3A3B"/>
<stop offset="1" stop-color="#1C2727"/>
</radialGradient>
<linearGradient id="paint58_linear_5409_5773" x1="20.9761" y1="14.4087" x2="25.3676" y2="14.4087" gradientUnits="userSpaceOnUse">
<stop stop-color="#5A2A1F"/>
<stop offset="0.29" stop-color="#492219"/>
<stop offset="0.66" stop-color="#3D1C14"/>
<stop offset="1" stop-color="#391B13"/>
</linearGradient>
<linearGradient id="paint59_linear_5409_5773" x1="22.9448" y1="13.2208" x2="20.0093" y2="16.9576" gradientUnits="userSpaceOnUse">
<stop stop-color="#DBA379"/>
<stop offset="0.49" stop-color="#E3B086"/>
<stop offset="1" stop-color="#F0C499"/>
</linearGradient>
<linearGradient id="paint60_linear_5409_5773" x1="22.0674" y1="18.6582" x2="26.1645" y2="18.6582" gradientUnits="userSpaceOnUse">
<stop stop-color="#FFD9B3"/>
<stop offset="0.68" stop-color="#FCD7B0"/>
<stop offset="1" stop-color="#F7D4AB"/>
</linearGradient>
<linearGradient id="paint61_linear_5409_5773" x1="19.563" y1="23.3838" x2="19.8618" y2="27.7006" gradientUnits="userSpaceOnUse">
<stop stop-color="#DBA379"/>
<stop offset="0.49" stop-color="#E3B086"/>
<stop offset="1" stop-color="#F0C499"/>
</linearGradient>
<linearGradient id="paint62_linear_5409_5773" x1="18.0115" y1="22.2179" x2="20.3904" y2="22.2179" gradientUnits="userSpaceOnUse">
<stop stop-color="#FFD9B3"/>
<stop offset="0.68" stop-color="#FCD7B0"/>
<stop offset="1" stop-color="#F7D4AB"/>
</linearGradient>
<linearGradient id="paint63_linear_5409_5773" x1="19.226" y1="16.6499" x2="19.308" y2="13.1313" gradientUnits="userSpaceOnUse">
<stop stop-color="#2F2E2E"/>
<stop offset="1" stop-color="#0B0A0A"/>
</linearGradient>
<linearGradient id="paint64_linear_5409_5773" x1="24.375" y1="25.3977" x2="24.791" y2="36.5524" gradientUnits="userSpaceOnUse">
<stop stop-color="#F0C998"/>
<stop offset="0.52" stop-color="#F0CB9A"/>
<stop offset="0.85" stop-color="#F3D2A3"/>
<stop offset="1" stop-color="#F6D8AA"/>
</linearGradient>
<linearGradient id="paint65_linear_5409_5773" x1="24.7631" y1="29.0952" x2="25.2627" y2="40.767" gradientUnits="userSpaceOnUse">
<stop stop-color="#F0F0F4"/>
<stop offset="0.64" stop-color="#F8F8F9"/>
<stop offset="1" stop-color="white"/>
</linearGradient>
<linearGradient id="paint66_linear_5409_5773" x1="14.2089" y1="29.3689" x2="14.7187" y2="41.3073" gradientUnits="userSpaceOnUse">
<stop stop-color="#F0F0F4"/>
<stop offset="0.64" stop-color="#F8F8F9"/>
<stop offset="1" stop-color="white"/>
</linearGradient>
<linearGradient id="paint67_linear_5409_5773" x1="19.062" y1="37.4611" x2="27.7558" y2="20.8338" gradientUnits="userSpaceOnUse">
<stop stop-color="white"/>
<stop offset="0.36" stop-color="#F8F8F9"/>
<stop offset="1" stop-color="#F0F0F4"/>
</linearGradient>
<linearGradient id="paint68_linear_5409_5773" x1="14.6963" y1="36.4867" x2="14.9424" y2="22.8199" gradientUnits="userSpaceOnUse">
<stop stop-color="#E0E0E4"/>
<stop offset="1" stop-color="#F0F0F4"/>
</linearGradient>
<linearGradient id="paint69_linear_5409_5773" x1="24.4878" y1="36.4443" x2="24.7412" y2="22.4287" gradientUnits="userSpaceOnUse">
<stop stop-color="#E0E0E4"/>
<stop offset="1" stop-color="#F0F0F4"/>
</linearGradient>
<linearGradient id="paint70_linear_5409_5773" x1="19.9517" y1="36.7593" x2="19.9048" y2="36.2173" gradientUnits="userSpaceOnUse">
<stop stop-color="#E0E0E4"/>
<stop offset="1" stop-color="#F0F0F4"/>
</linearGradient>
<linearGradient id="paint71_linear_5409_5773" x1="16.9023" y1="31.0964" x2="15.7671" y2="25.5974" gradientUnits="userSpaceOnUse">
<stop stop-color="white"/>
<stop offset="0.36" stop-color="#F8F8F9"/>
<stop offset="1" stop-color="#F0F0F4"/>
</linearGradient>
<linearGradient id="paint72_linear_5409_5773" x1="9.92578" y1="33.9644" x2="9.9668" y2="34.3086" gradientUnits="userSpaceOnUse">
<stop stop-color="#E0E0E4"/>
<stop offset="1" stop-color="#F0F0F4"/>
</linearGradient>
<linearGradient id="paint73_linear_5409_5773" x1="29.103" y1="33.9629" x2="29.1118" y2="34.0405" gradientUnits="userSpaceOnUse">
<stop stop-color="#E0E0E4"/>
<stop offset="1" stop-color="#F0F0F4"/>
</linearGradient>
<linearGradient id="paint74_linear_5409_5773" x1="13.6211" y1="25.4126" x2="14.7944" y2="29.5449" gradientUnits="userSpaceOnUse">
<stop stop-color="#E0E0E0"/>
<stop offset="0.81" stop-color="#E2E2E2"/>
<stop offset="1" stop-color="#E5E5E5"/>
</linearGradient>
<linearGradient id="paint75_linear_5409_5773" x1="25.9599" y1="25.7129" x2="24.5171" y2="28.8711" gradientUnits="userSpaceOnUse">
<stop stop-color="#F0F0F4"/>
<stop offset="1" stop-color="#E0E0E4"/>
</linearGradient>
<linearGradient id="paint76_linear_5409_5773" x1="9.9736" y1="26.053" x2="10.1069" y2="37.2765" gradientUnits="userSpaceOnUse">
<stop stop-color="#2B2A2D"/>
<stop offset="0.24" stop-color="#28272A"/>
<stop offset="1" stop-color="#232225"/>
</linearGradient>
<linearGradient id="paint77_linear_5409_5773" x1="29.7002" y1="25.8799" x2="29.8305" y2="36.9394" gradientUnits="userSpaceOnUse">
<stop stop-color="#2B2A2D"/>
<stop offset="0.24" stop-color="#28272A"/>
<stop offset="1" stop-color="#232225"/>
</linearGradient>
<linearGradient id="paint78_linear_5409_5773" x1="29.561" y1="26.7368" x2="33.1484" y2="29.9419" gradientUnits="userSpaceOnUse">
<stop stop-color="#2F2F32"/>
<stop offset="0.35" stop-color="#29282B"/>
<stop offset="1" stop-color="#232225"/>
</linearGradient>
<linearGradient id="paint79_linear_5409_5773" x1="9.63767" y1="27.4282" x2="9.57761" y2="31.9663" gradientUnits="userSpaceOnUse">
<stop stop-color="#2F2F32"/>
<stop offset="0.35" stop-color="#29282B"/>
<stop offset="1" stop-color="#232225"/>
</linearGradient>
<linearGradient id="paint80_linear_5409_5773" x1="7.52781" y1="27.2642" x2="7.64354" y2="37.0581" gradientUnits="userSpaceOnUse">
<stop stop-color="#2B2A2D"/>
<stop offset="0.24" stop-color="#28272A"/>
<stop offset="1" stop-color="#232225"/>
</linearGradient>
<linearGradient id="paint81_linear_5409_5773" x1="6.27929" y1="29.6357" x2="6.13281" y2="39.223" gradientUnits="userSpaceOnUse">
<stop stop-color="#2F2F32"/>
<stop offset="0.35" stop-color="#29282B"/>
<stop offset="1" stop-color="#232225"/>
</linearGradient>
<linearGradient id="paint82_linear_5409_5773" x1="9.60888" y1="34.411" x2="9.55908" y2="27.3388" gradientUnits="userSpaceOnUse">
<stop stop-color="#1D1C1E"/>
<stop offset="1" stop-color="#232225"/>
</linearGradient>
<linearGradient id="paint83_linear_5409_5773" x1="27.7456" y1="36.5187" x2="27.5024" y2="30.6462" gradientUnits="userSpaceOnUse">
<stop stop-color="#1D1C1E"/>
<stop offset="1" stop-color="#232225"/>
</linearGradient>
<linearGradient id="paint84_linear_5409_5773" x1="11.6426" y1="37.1474" x2="11.395" y2="31.1855" gradientUnits="userSpaceOnUse">
<stop stop-color="#1D1C1E"/>
<stop offset="1" stop-color="#232225"/>
</linearGradient>
<linearGradient id="paint85_linear_5409_5773" x1="25.4043" y1="24.384" x2="26.415" y2="32.6149" gradientUnits="userSpaceOnUse">
<stop stop-color="#2B2B2E"/>
<stop offset="1" stop-color="#2B2A2D"/>
</linearGradient>
<linearGradient id="paint86_linear_5409_5773" x1="11.8784" y1="25.3745" x2="12.9126" y2="33.7856" gradientUnits="userSpaceOnUse">
<stop stop-color="#2B2B2E"/>
<stop offset="1" stop-color="#2B2A2D"/>
</linearGradient>
<linearGradient id="paint87_linear_5409_5773" x1="31.6011" y1="27.2465" x2="31.7153" y2="36.8632" gradientUnits="userSpaceOnUse">
<stop stop-color="#2B2A2D"/>
<stop offset="0.24" stop-color="#28272A"/>
<stop offset="1" stop-color="#232225"/>
</linearGradient>
<linearGradient id="paint88_linear_5409_5773" x1="29.1733" y1="34.0757" x2="29.1396" y2="29.2403" gradientUnits="userSpaceOnUse">
<stop stop-color="#1D1C1E"/>
<stop offset="1" stop-color="#232225"/>
</linearGradient>
<linearGradient id="paint89_linear_5409_5773" x1="33.4702" y1="29.3927" x2="33.3911" y2="34.5679" gradientUnits="userSpaceOnUse">
<stop stop-color="#2F2F32"/>
<stop offset="0.35" stop-color="#29282B"/>
<stop offset="1" stop-color="#232225"/>
</linearGradient>
<linearGradient id="paint90_linear_5409_5773" x1="11.3257" y1="30.853" x2="16.0146" y2="25.603" gradientUnits="userSpaceOnUse">
<stop stop-color="#39383C"/>
<stop offset="0.1" stop-color="#38373B"/>
<stop offset="1" stop-color="#343336"/>
</linearGradient>
<linearGradient id="paint91_linear_5409_5773" x1="25.2295" y1="28.959" x2="26.4702" y2="27.5703" gradientUnits="userSpaceOnUse">
<stop stop-color="#1D1C1E"/>
<stop offset="1" stop-color="#232225"/>
</linearGradient>
<linearGradient id="paint92_linear_5409_5773" x1="14.5576" y1="31.2867" x2="13.7124" y2="14.9055" gradientUnits="userSpaceOnUse">
<stop stop-color="#F4F5F5"/>
<stop offset="0.61" stop-color="#EEEFEF"/>
<stop offset="1" stop-color="#E8E9E8"/>
</linearGradient>
<linearGradient id="paint93_linear_5409_5773" x1="24.7851" y1="30.7548" x2="23.9399" y2="14.3765" gradientUnits="userSpaceOnUse">
<stop stop-color="#F0F0F4"/>
<stop offset="0.64" stop-color="#F8F8F9"/>
<stop offset="1" stop-color="white"/>
</linearGradient>
</defs>
</svg>
