<svg width="24" height="24" viewBox="0 0 24 24" fill="none" xmlns="http://www.w3.org/2000/svg">
<rect x="2" y="2" width="20" height="20" rx="10" fill="#5F249F"/>
<rect x="2" y="2" width="20" height="20" rx="10" stroke="#5F249F" stroke-width="2"/>
<mask id="path-2-outside-1_5495_5097" maskUnits="userSpaceOnUse" x="5" y="5" width="14" height="15" fill="black">
<rect fill="white" x="5" y="5" width="14" height="15"/>
<path d="M15.75 11.375C15.75 12.4531 15.3984 13.4609 14.8125 14.2578L17.7656 17.2344C18.0703 17.5156 18.0703 18.0078 17.7656 18.2891C17.4844 18.5938 16.9922 18.5938 16.7109 18.2891L13.7344 15.3125C12.9375 15.9219 11.9297 16.25 10.875 16.25C8.17969 16.25 6 14.0703 6 11.375C6 8.70312 8.17969 6.5 10.875 6.5C13.5469 6.5 15.75 8.70312 15.75 11.375ZM10.875 14.75C12.0703 14.75 13.1719 14.1172 13.7812 13.0625C14.3906 12.0312 14.3906 10.7422 13.7812 9.6875C13.1719 8.65625 12.0703 8 10.875 8C9.65625 8 8.55469 8.65625 7.94531 9.6875C7.33594 10.7422 7.33594 12.0312 7.94531 13.0625C8.55469 14.1172 9.65625 14.75 10.875 14.75Z"/>
</mask>
<path d="M15.75 11.375C15.75 12.4531 15.3984 13.4609 14.8125 14.2578L17.7656 17.2344C18.0703 17.5156 18.0703 18.0078 17.7656 18.2891C17.4844 18.5938 16.9922 18.5938 16.7109 18.2891L13.7344 15.3125C12.9375 15.9219 11.9297 16.25 10.875 16.25C8.17969 16.25 6 14.0703 6 11.375C6 8.70312 8.17969 6.5 10.875 6.5C13.5469 6.5 15.75 8.70312 15.75 11.375ZM10.875 14.75C12.0703 14.75 13.1719 14.1172 13.7812 13.0625C14.3906 12.0312 14.3906 10.7422 13.7812 9.6875C13.1719 8.65625 12.0703 8 10.875 8C9.65625 8 8.55469 8.65625 7.94531 9.6875C7.33594 10.7422 7.33594 12.0312 7.94531 13.0625C8.55469 14.1172 9.65625 14.75 10.875 14.75Z" fill="white"/>
<path d="M14.8125 14.2578L14.0068 13.6654L13.5 14.3547L14.1026 14.9621L14.8125 14.2578ZM17.7656 17.2344L17.0557 17.9387L17.0712 17.9543L17.0873 17.9692L17.7656 17.2344ZM17.7656 18.2891L17.0873 17.5543L17.058 17.5814L17.0308 17.6108L17.7656 18.2891ZM16.7109 18.2891L17.4457 17.6108L17.4322 17.5961L17.418 17.582L16.7109 18.2891ZM13.7344 15.3125L14.4415 14.6054L13.8224 13.9863L13.1269 14.5181L13.7344 15.3125ZM13.7812 13.0625L12.9203 12.5537L12.9154 12.5622L13.7812 13.0625ZM13.7812 9.6875L14.6472 9.1872L14.6422 9.17877L13.7812 9.6875ZM7.94531 9.6875L7.08434 9.17875L7.07945 9.18722L7.94531 9.6875ZM7.94531 13.0625L8.81122 12.5622L8.80624 12.5538L7.94531 13.0625ZM14.75 11.375C14.75 12.2359 14.469 13.0369 14.0068 13.6654L15.6182 14.8502C16.3279 13.8849 16.75 12.6703 16.75 11.375H14.75ZM14.1026 14.9621L17.0557 17.9387L18.4755 16.5301L15.5224 13.5535L14.1026 14.9621ZM17.0873 17.9692C17.0212 17.9081 16.9941 17.8287 16.9941 17.7617C16.9941 17.6948 17.0212 17.6153 17.0873 17.5543L18.4439 19.0239C19.1776 18.3467 19.1776 17.1768 18.4439 16.4996L17.0873 17.9692ZM17.0308 17.6108C17.0919 17.5446 17.1713 17.5176 17.2383 17.5176C17.3052 17.5176 17.3847 17.5446 17.4457 17.6108L15.9761 18.9673C16.6533 19.701 17.8232 19.701 18.5004 18.9673L17.0308 17.6108ZM17.418 17.582L14.4415 14.6054L13.0273 16.0196L16.0038 18.9962L17.418 17.582ZM13.1269 14.5181C12.5156 14.9856 11.7246 15.25 10.875 15.25V17.25C12.1348 17.25 13.3594 16.8581 14.3418 16.1069L13.1269 14.5181ZM10.875 15.25C8.73197 15.25 7 13.518 7 11.375H5C5 14.6226 7.6274 17.25 10.875 17.25V15.25ZM7 11.375C7 9.25228 8.7351 7.5 10.875 7.5V5.5C7.62428 5.5 5 8.15397 5 11.375H7ZM10.875 7.5C12.9946 7.5 14.75 9.25541 14.75 11.375H16.75C16.75 8.15084 14.0992 5.5 10.875 5.5V7.5ZM10.875 15.75C12.4296 15.75 13.8601 14.9249 14.6471 13.5628L12.9154 12.5622C12.4836 13.3095 11.7111 13.75 10.875 13.75V15.75ZM14.6422 13.5712C15.439 12.2227 15.4333 10.5479 14.6471 9.18722L12.9154 10.1878C13.348 10.9365 13.3422 11.8398 12.9203 12.5538L14.6422 13.5712ZM14.6422 9.17877C13.8613 7.85722 12.4401 7 10.875 7V9C11.7005 9 12.4825 9.45528 12.9203 10.1962L14.6422 9.17877ZM10.875 7C9.29027 7 7.86732 7.85381 7.08439 9.17877L8.80624 10.1962C9.24206 9.45869 10.0222 9 10.875 9V7ZM7.07945 9.18722C6.29327 10.5479 6.28753 12.2227 7.08439 13.5712L8.80624 12.5538C8.38434 11.8398 8.3786 10.9365 8.81118 10.1878L7.07945 9.18722ZM7.07945 13.5628C7.8684 14.9283 9.3009 15.75 10.875 15.75V13.75C10.0116 13.75 9.24098 13.3061 8.81118 12.5622L7.07945 13.5628Z" fill="#5F249F" mask="url(#path-2-outside-1_5495_5097)"/>
</svg>
